<?xml version="1.0" encoding="UTF-8" standalone="no"?>
<!DOCTYPE svg PUBLIC "-//W3C//DTD SVG 1.1//EN" "http://www.w3.org/Graphics/SVG/1.1/DTD/svg11.dtd">
<svg width="100%" height="100%" viewBox="0 0 512 512" version="1.1" xmlns="http://www.w3.org/2000/svg" xmlns:xlink="http://www.w3.org/1999/xlink" xml:space="preserve" xmlns:serif="http://www.serif.com/" style="fill-rule:evenodd;clip-rule:evenodd;stroke-linejoin:round;stroke-miterlimit:1.41421;">
    <path id="path14" d="M255.227,0L14.338,84.774L52.402,400.382L255.483,512L459.611,398.87L497.662,83.274L255.227,0Z" style="fill:rgb(196,225,247);fill-rule:nonzero;"/>
    <path id="path16" d="M473.637,101.513L254.664,26.842L254.664,485.332L438.173,383.773L473.637,101.513Z" style="fill:rgb(20,133,224);fill-rule:nonzero;"/>
    <path id="path18" d="M41.369,102.862L73.987,385.12L254.663,485.332L254.663,26.833L41.369,102.862Z" style="fill:rgb(119,190,247);fill-rule:nonzero;"/>
    <path id="path20" d="M305.421,254.887L255.064,149.727L210.733,254.887L305.421,254.887ZM324.62,299.105L191.135,299.105L161.273,373.799L105.725,374.826L254.666,43.491L408.798,374.826L357.314,374.826L324.62,299.105Z" style="fill:rgb(242,242,242);fill-rule:nonzero;"/>
    <path id="path22" d="M254.664,43.491L255.062,149.727L305.367,254.968L254.778,254.968L254.664,299.037L324.617,299.105L357.312,374.839L410.462,375.824L254.664,43.491Z" style="fill:rgb(196,225,247);fill-rule:nonzero;"/>
</svg>
