<?xml version="1.0" encoding="UTF-8" standalone="no"?><!DOCTYPE svg PUBLIC "-//W3C//DTD SVG 1.1//EN" "http://www.w3.org/Graphics/SVG/1.1/DTD/svg11.dtd"><svg width="100%" height="100%" viewBox="0 0 512 512" version="1.1" xmlns="http://www.w3.org/2000/svg" xmlns:xlink="http://www.w3.org/1999/xlink" xml:space="preserve" style="fill-rule:evenodd;clip-rule:evenodd;stroke-linejoin:round;stroke-miterlimit:1.41421;"><g id="g3013"><path id="polygon2989" d="M255.778,512l-148.134,-41.123l-33.011,-370.257l362.734,0l-33.046,370.199l-148.543,41.181Z" style="fill:#1485e0;fill-rule:nonzero;"/><path id="polygon2991" d="M376.03,447.246l28.24,-316.352l-148.27,0l0,349.629l120.03,-33.277Z" style="fill:#c4e1f7;fill-rule:nonzero;"/><path id="polygon2993" d="M150.31,268.217l4.07,45.41l101.62,0l0,-45.41l-105.69,0Z" style="fill:#ebebeb;fill-rule:nonzero;"/><path id="polygon2995" d="M142.132,176.305l4.128,45.411l109.74,0l0,-45.411l-0.157,0l-113.711,0Z" style="fill:#ebebeb;fill-rule:nonzero;"/><path id="polygon2997" d="M256,386.153l-0.199,0.053l-50.574,-13.656l-3.233,-36.217l-24.575,0l-21.01,0l6.362,71.301l93.02,25.823l0.209,-0.058l0,-47.246Z" style="fill:#ebebeb;fill-rule:nonzero;"/><path id="path2999" d="M160,0l55,0l0,23l-32,0l0,23l32,0l0,23l-55,0l0,-69Z" style="fill:#1485e0;fill-rule:nonzero;"/><path id="path3001" d="M226,0l55,0l0,20l-32,0l0,4l32,0l0,46l-55,0l0,-21l32,0l0,-4l-32,0l0,-45Z" style="fill:#1485e0;fill-rule:nonzero;"/><path id="path3003" d="M292,0l55,0l0,20l-32,0l0,4l32,0l0,46l-55,0l0,-21l32,0l0,-4l-32,0l0,-45Z" style="fill:#1485e0;fill-rule:nonzero;"/><path id="polygon3005" d="M361.399,268.217l8.198,-91.912l-113.754,0l0,45.411l63.988,0l-4.132,46.501l-59.856,0l0,45.41l55.918,0l-5.271,58.894l-50.647,13.67l0,47.244l93.094,-25.801l0.683,-7.672l10.671,-119.551l1.108,-12.194Z" style="fill:#fff;fill-rule:nonzero;"/></g></svg>