<?xml version="1.0" encoding="UTF-8" standalone="no"?>
<!DOCTYPE svg PUBLIC "-//W3C//DTD SVG 1.1//EN" "http://www.w3.org/Graphics/SVG/1.1/DTD/svg11.dtd">
<svg width="100%" height="100%" viewBox="0 0 512 512" version="1.1" xmlns="http://www.w3.org/2000/svg" xmlns:xlink="http://www.w3.org/1999/xlink" xml:space="preserve" xmlns:serif="http://www.serif.com/" style="fill-rule:evenodd;clip-rule:evenodd;">
    <g id="path14" transform="matrix(2.00738,0,0,2.00738,0,129.772)">
        <path d="M147.488,45.732L170.354,45.732L170.354,69.107L181.915,69.107C187.254,69.107 192.746,68.156 197.802,66.442C200.287,65.6 203.076,64.427 205.526,62.953C202.298,58.739 200.65,53.417 200.165,48.172C199.507,41.038 200.946,31.752 205.774,26.168L208.178,23.388L211.042,25.69C218.253,31.484 224.318,39.579 225.387,48.808C234.07,46.254 244.265,46.858 251.919,51.276L255.059,53.087L253.406,56.313C246.933,68.947 233.401,72.86 220.171,72.167C200.374,121.476 157.273,144.82 105.014,144.82C78.015,144.82 53.244,134.727 39.138,110.773C38.311,109.285 37.603,107.729 36.852,106.201C32.084,95.657 30.5,84.106 31.574,72.564L31.897,69.107L51.45,69.107L51.45,45.732L74.316,45.732L74.316,22.866L120.048,22.866L120.048,0L147.487,0L147.487,45.732" style="fill:rgb(20,133,224);fill-rule:nonzero;"/>
    </g>
    <g id="path24" transform="matrix(2.00738,0,0,2.00738,0,83.8709)">
        <rect x="123.859" y="26.676" width="19.818" height="19.818" style="fill:rgb(119,190,247);fill-rule:nonzero;"/>
    </g>
    <g id="use28" transform="matrix(2.00738,0,0,2.00738,0,129.772)">
        <path d="M126.292,21.977L126.292,5.461M129.264,21.977L129.264,5.461M132.266,21.977L132.266,5.461M135.269,21.977L135.269,5.461M138.272,21.977L138.272,5.461M141.244,21.977L141.244,5.461" style="fill-rule:nonzero;stroke:rgb(20,133,224);stroke-width:1.56px;"/>
    </g>
    <g id="path22" transform="matrix(2.00738,0,0,-2.00738,-137.702,276.653)">
        <rect x="123.859" y="3.811" width="19.818" height="19.817" style="fill:rgb(196,225,247);fill-rule:nonzero;"/>
    </g>
    <g id="path26" transform="matrix(2.00738,0,0,-2.00738,-137.702,276.653)">
        <path d="M126.292,21.977L126.292,5.461M129.264,21.977L129.264,5.461M132.266,21.977L132.266,5.461M135.269,21.977L135.269,5.461M138.272,21.977L138.272,5.461M141.244,21.977L141.244,5.461" style="fill-rule:nonzero;stroke:rgb(20,133,224);stroke-width:1.56px;"/>
    </g>
    <g id="path221" serif:id="path22" transform="matrix(2.00738,0,0,2.00738,-91.8016,175.672)">
        <rect x="123.859" y="3.811" width="19.818" height="19.817" style="fill:rgb(196,225,247);fill-rule:nonzero;"/>
    </g>
    <g id="path241" serif:id="path24" transform="matrix(2.00738,0,0,2.00738,-91.8016,175.672)">
        <rect x="123.859" y="26.676" width="19.818" height="19.818" style="fill:rgb(119,190,247);fill-rule:nonzero;"/>
    </g>
    <g id="path261" serif:id="path26" transform="matrix(2.00738,0,0,2.00738,-91.8016,175.672)">
        <path d="M126.292,21.977L126.292,5.461M129.264,21.977L129.264,5.461M132.266,21.977L132.266,5.461M135.269,21.977L135.269,5.461M138.272,21.977L138.272,5.461M141.244,21.977L141.244,5.461" style="fill-rule:nonzero;stroke:rgb(20,133,224);stroke-width:1.56px;"/>
    </g>
    <g id="use281" serif:id="use28" transform="matrix(2.00738,0,0,2.00738,-91.8016,221.573)">
        <path d="M126.292,21.977L126.292,5.461M129.264,21.977L129.264,5.461M132.266,21.977L132.266,5.461M135.269,21.977L135.269,5.461M138.272,21.977L138.272,5.461M141.244,21.977L141.244,5.461" style="fill-rule:nonzero;stroke:rgb(20,133,224);stroke-width:1.56px;"/>
    </g>
    <g id="path222" serif:id="path22" transform="matrix(2.00738,0,0,-2.00738,-45.9008,276.653)">
        <rect x="123.859" y="3.811" width="19.818" height="19.817" style="fill:rgb(196,225,247);fill-rule:nonzero;"/>
    </g>
    <g id="path242" serif:id="path24" transform="matrix(2.00738,0,0,-2.00738,-45.9008,276.653)">
        <rect x="123.859" y="26.676" width="19.818" height="19.818" style="fill:rgb(119,190,247);fill-rule:nonzero;"/>
    </g>
    <g id="path262" serif:id="path26" transform="matrix(2.00738,0,0,-2.00738,-45.9008,276.653)">
        <path d="M126.292,21.977L126.292,5.461M129.264,21.977L129.264,5.461M132.266,21.977L132.266,5.461M135.269,21.977L135.269,5.461M138.272,21.977L138.272,5.461M141.244,21.977L141.244,19.858L141.244,5.461" style="fill-rule:nonzero;stroke:rgb(20,133,224);stroke-width:1.56px;"/>
    </g>
    <g id="use282" serif:id="use28" transform="matrix(2.00738,0,0,-2.00738,-45.9008,230.752)">
        <path d="M126.292,21.977L126.292,5.461M129.264,21.977L129.264,5.461M132.266,21.977L132.266,5.461M135.269,21.977L135.269,5.461M138.272,21.977L138.272,5.461M141.244,21.977L141.244,5.461" style="fill-rule:nonzero;stroke:rgb(20,133,224);stroke-width:1.56px;"/>
    </g>
    <g id="path223" serif:id="path22" transform="matrix(2.00738,0,0,2.00738,0,175.672)">
        <rect x="123.859" y="3.811" width="19.818" height="19.817" style="fill:rgb(196,225,247);fill-rule:nonzero;"/>
    </g>
    <g id="path243" serif:id="path24" transform="matrix(2.00738,0,0,2.00738,0,175.672)">
        <path d="M123.859,26.676L143.677,26.676L143.677,46.495L123.859,46.495L123.859,26.676Z" style="fill:rgb(119,190,247);fill-rule:nonzero;"/>
    </g>
    <g id="path263" serif:id="path26" transform="matrix(2.00738,0,0,2.00738,0,175.672)">
        <path d="M126.292,21.977L126.292,20.082L126.292,5.461M129.264,21.977L129.264,5.461M132.266,21.977L132.266,5.461M135.269,21.977L135.269,5.461M138.272,21.977L138.272,5.461M141.244,21.977L141.244,5.461" style="fill-rule:nonzero;stroke:rgb(20,133,224);stroke-width:1.56px;"/>
    </g>
    <g id="use283" serif:id="use28" transform="matrix(2.00738,0,0,2.00738,0,221.573)">
        <path d="M126.292,21.977L126.292,5.461M129.264,21.977L129.264,5.461M132.266,21.977L132.266,5.461M135.269,21.977L135.269,5.461M138.272,21.977L138.272,5.461M141.244,21.977L141.244,5.461" style="fill-rule:nonzero;stroke:rgb(20,133,224);stroke-width:1.56px;"/>
    </g>
    <g id="path224" serif:id="path22" transform="matrix(2.00738,0,0,-2.00738,45.9008,276.653)">
        <rect x="123.859" y="3.811" width="19.818" height="19.817" style="fill:rgb(196,225,247);fill-rule:nonzero;"/>
    </g>
    <g id="path264" serif:id="path26" transform="matrix(2.00738,0,0,-2.00738,45.9008,276.653)">
        <path d="M126.292,21.977L126.292,5.461M129.264,21.977L129.264,5.461M132.266,21.977L132.266,5.461M135.269,21.977L135.269,5.461M138.272,21.977L138.272,5.461M141.244,21.977L141.244,5.461" style="fill-rule:nonzero;stroke:rgb(20,133,224);stroke-width:1.56px;"/>
    </g>
    <g id="path38" transform="matrix(2.00738,0,0,2.00738,0,129.772)">
        <clipPath id="_clip1">
            <path d="M76,2L76,48L54,48L54,71L35.581,71C35.503,71.666 35.439,72.333 35.375,73C34.224,85.531 36.411,97.088 41.438,106.969L43.125,110C44.136,111.817 45.316,113.523 46.563,115.188C47.807,116.85 48.248,117.77 49.031,118.875C62.32,133.811 82.129,141 105,141C155.648,141 198.633,118.562 217.656,68.156C231.153,69.541 244.1,66.08 250,54.563C240.601,49.139 228.522,50.877 221.563,54.375L240,2L168,48L145,48L145,2L76,2Z"/>
        </clipPath>
        <g clip-path="url(#_clip1)">
            <path d="M221.57,54.38C223.103,42.464 214.186,33.105 208.656,28.661C202.283,36.029 201.293,55.339 211.291,63.469C205.712,68.425 193.954,72.917 181.915,72.917L34,72.917C32.829,85.484 34,146 34,146L251,146L250.013,54.576C240.615,49.152 228.529,50.882 221.57,54.379" style="fill:rgb(119,190,247);fill-rule:nonzero;"/>
        </g>
    </g>
    <g id="path42" transform="matrix(2.00738,0,0,2.00738,0,129.772)">
        <clipPath id="_clip2">
            <path d="M76,2L76,48L54,48L54,71L35.581,71C35.503,71.666 35.439,72.333 35.375,73C34.224,85.531 36.411,97.088 41.438,106.969L43.125,110C44.136,111.817 45.316,113.523 46.563,115.188C47.807,116.85 48.248,117.77 49.031,118.875C62.32,133.811 82.129,141 105,141C155.648,141 198.633,118.562 217.656,68.156C231.153,69.541 244.1,66.08 250,54.563C240.601,49.139 228.522,50.877 221.563,54.375L240,2L168,48L145,48L145,2L76,2Z"/>
        </clipPath>
        <g clip-path="url(#_clip2)">
            <path d="M111.237,140.89C97.698,134.465 90.266,125.731 86.131,116.196L45,118L66,146L111.237,140.89" style="fill:rgb(196,225,247);fill-rule:nonzero;"/>
        </g>
    </g>
    <g id="path46" transform="matrix(2.00738,0,0,2.00738,0,129.772)">
        <path d="M45.625,117.031C59.79,117.807 74.907,117.946 88.094,113.813" style="fill:rgb(20,133,224);fill-rule:nonzero;stroke:rgb(20,133,224);stroke-width:3.4px;stroke-linecap:round;"/>
    </g>
    <g id="path48" transform="matrix(2.00738,0,0,2.00738,0,129.772)">
        <path d="M102.17,106.959C102.17,109.978 99.723,112.426 96.704,112.426C93.684,112.426 91.236,109.978 91.236,106.959C91.236,103.94 93.684,101.492 96.704,101.492C99.723,101.492 102.17,103.94 102.17,106.959Z" style="fill:rgb(212,237,241);fill-rule:nonzero;"/>
    </g>
    <g id="path50" transform="matrix(2.00738,0,0,2.00738,0,129.772)">
        <path d="M98.121,103.308C97.644,103.584 97.321,104.1 97.321,104.692C97.321,105.574 98.037,106.289 98.919,106.289C99.524,106.289 100.049,105.953 100.321,105.457C100.513,105.919 100.619,106.427 100.619,106.959C100.619,108.513 99.714,109.856 98.401,110.488C97.888,110.736 97.312,110.874 96.704,110.874C94.542,110.874 92.788,109.121 92.788,106.959C92.788,104.796 94.542,103.043 96.704,103.043C97.204,103.043 97.681,103.137 98.121,103.308Z" style="fill:rgb(20,133,224);fill-rule:nonzero;"/>
    </g>
    <g id="path52" transform="matrix(2.00738,0,0,2.00738,0,129.772)">
        <path d="M0,90.162L254.327,90.162C248.79,88.758 236.806,86.86 238.783,79.603C228.714,91.254 204.43,87.777 198.301,82.031C191.477,91.93 151.747,88.167 148.976,80.456C140.42,90.497 113.909,90.497 105.353,80.456C102.58,88.167 62.851,91.93 56.026,82.031C49.898,87.777 25.616,91.254 15.546,79.603C17.522,86.86 5.539,88.758 0,90.162" style="fill:rgb(20,133,224);fill-rule:nonzero;"/>
    </g>
</svg>
