<?xml version="1.0" encoding="UTF-8" standalone="no"?><!DOCTYPE svg PUBLIC "-//W3C//DTD SVG 1.1//EN" "http://www.w3.org/Graphics/SVG/1.1/DTD/svg11.dtd"><svg width="100%" height="100%" viewBox="0 0 512 512" version="1.1" xmlns="http://www.w3.org/2000/svg" xmlns:xlink="http://www.w3.org/1999/xlink" xml:space="preserve" style="fill-rule:evenodd;clip-rule:evenodd;stroke-linejoin:round;stroke-miterlimit:1.41421;"><path d="M108.4,0l23,0l0,22.8l21.2,0l0,-22.8l23,0l0,69l-23,0l0,-23l-21,0l0,23l-23.2,0m97.6,-46l-20.3,0l0,-23l63.7,0l0,23l-20.4,0l0,46l-23,0m53.5,-69l24.1,0l14.8,24.3l14.8,-24.3l24.1,0l0,69l-23,0l0,-34.2l-16.1,24.8l-16.1,-24.8l0,34.2l-22.6,0m89.2,-69l23,0l0,46.2l32.6,0l0,22.8l-55.6,0" style="fill:#1485e0;fill-rule:nonzero;"/><path d="M107.6,471l-33,-370.4l362.8,0l-33,370.2l-148.7,41.2" style="fill:#1485e0;fill-rule:nonzero;"/><path d="M256,480.5l0,-349.5l148.3,0l-28.3,316" style="fill:#c4e1f7;fill-rule:nonzero;"/><path d="M142,176.3l114,0l0,45.4l-64.2,0l4.2,46.5l60,0l0,45.3l-101.6,0m2,22.8l45.6,0l3.2,36.3l50.8,13.6l0,47.4l-93.2,-26" style="fill:#ebebeb;fill-rule:nonzero;"/><path d="M369.6,176.3l-113.8,0l0,45.4l109.6,0m-4.1,46.5l-105.5,0l0,45.4l56,0l-5.3,59l-50.7,13.6l0,47.2l93,-25.8" style="fill:#fff;fill-rule:nonzero;"/></svg>