<?xml version="1.0" encoding="UTF-8" standalone="no"?><!DOCTYPE svg PUBLIC "-//W3C//DTD SVG 1.1//EN" "http://www.w3.org/Graphics/SVG/1.1/DTD/svg11.dtd"><svg width="100%" height="100%" viewBox="0 0 512 512" version="1.1" xmlns="http://www.w3.org/2000/svg" xmlns:xlink="http://www.w3.org/1999/xlink" xml:space="preserve" style="fill-rule:evenodd;clip-rule:evenodd;stroke-linejoin:round;stroke-miterlimit:1.41421;"><rect x="56" y="56" width="400" height="400" style="fill:#1485e0;"/><path d="M324.698,368.502c8.058,13.155 18.54,22.825 37.08,22.825c15.574,0 25.524,-7.784 25.524,-18.54c0,-12.889 -10.223,-17.454 -27.365,-24.952l-9.397,-4.032c-27.124,-11.555 -45.143,-26.032 -45.143,-56.635c0,-28.19 21.479,-49.651 55.047,-49.651c23.899,0 41.08,8.318 53.461,30.096l-29.27,18.793c-6.445,-11.555 -13.397,-16.108 -24.191,-16.108c-11.009,0 -17.987,6.985 -17.987,16.108c0,11.277 6.984,15.842 23.111,22.826l9.397,4.025c31.937,13.695 49.968,27.657 49.968,59.048c0,33.841 -26.584,52.381 -62.285,52.381c-34.908,0 -57.461,-16.635 -68.496,-38.438l30.546,-17.746Zm-132.781,3.257c5.905,10.476 11.277,19.333 24.191,19.333c12.349,0 20.14,-4.832 20.14,-23.619l0,-127.81l37.587,0l0,128.318c0,38.921 -22.819,56.635 -56.127,56.635c-30.095,0 -47.524,-15.575 -56.387,-34.333l30.596,-18.524Z" style="fill:#c4e1f7;fill-rule:nonzero;"/></svg>