<?xml version="1.0" encoding="UTF-8" standalone="no"?><!DOCTYPE svg PUBLIC "-//W3C//DTD SVG 1.1//EN" "http://www.w3.org/Graphics/SVG/1.1/DTD/svg11.dtd"><svg width="100%" height="100%" viewBox="0 0 512 512" version="1.1" xmlns="http://www.w3.org/2000/svg" xmlns:xlink="http://www.w3.org/1999/xlink" xml:space="preserve" style="fill-rule:evenodd;clip-rule:evenodd;stroke-linejoin:round;stroke-miterlimit:1.41421;"><g id="NodeJs"><path d="M255.896,512c-6.583,0 -13.165,-1.776 -19.016,-5.276l-60.547,-37.091c-9.038,-5.224 -4.598,-7.105 -1.672,-8.15c12.068,-4.336 15.672,-6.478 28.523,-14.053c1.359,-0.783 3.135,-0.47 4.545,0.366l45.398,26.852c1.671,0.992 4.075,0.992 5.642,0l177.358,-105.422c1.671,-0.993 2.768,-3.03 2.768,-5.068l0,-213.404c0,-2.089 -1.097,-4.127 -2.821,-5.172l-177.305,-108.191c-1.672,-1.044 -3.918,-1.044 -5.59,0l-177.149,108.191c-1.776,1.045 -2.873,3.083 -2.873,5.12l0,213.456c0,2.09 1.097,4.023 2.821,5.015l45.606,27.375c26.956,13.948 42.942,-0.209 42.942,-16.717l0,-209.852c0,-3.03 2.351,-5.381 5.277,-5.381l26.068,0c2.873,0 5.276,2.351 5.276,5.381l0,209.904c0,37.195 -22.098,58.562 -56.211,58.562c-10.448,0 -18.755,0 -41.793,-11.754l-47.539,-28.315c-11.754,-7 -19.016,-20.113 -19.016,-34.166l0,-216.538c0,-14.053 7.262,-27.165 19.068,-34.166l181.328,-108.452c11.441,-6.739 26.695,-6.739 38.084,0l181.276,108.4c11.754,7.053 19.068,20.165 19.068,34.166l0,216.538c0,14.053 -7.262,27.166 -19.068,34.218l-181.276,108.295c-5.799,3.448 -12.381,5.277 -19.068,5.277l-0.104,0.052Z" style="fill:#1485e0;fill-rule:nonzero;"/><path d="M311.95,365.725c-73.816,0 -96.019,-36.098 -96.019,-67.756c0,-3.03 2.351,-5.381 5.224,-5.381l23.456,0c2.613,0 4.807,1.933 5.225,4.597c3.5,24.71 19.12,35.576 62.062,35.576c38.188,0 53.808,-11.806 53.808,-32.755c0,-12.119 -3.97,-21.053 -63.316,-27.06c-49.629,-5.068 -80.347,-16.404 -80.347,-57.465c0,-37.875 30.875,-59.973 82.541,-59.973c52.711,0 87.399,15.986 90.481,58.092c0.105,1.515 -0.418,3.03 -1.41,4.179c-0.993,1.097 -2.351,1.724 -3.814,1.724l-23.508,0c-2.456,0 -4.597,-1.776 -5.12,-4.231c-5.015,-19.382 -19.381,-26.748 -56.629,-26.748c-41.688,0 -46.547,14.576 -46.547,25.86c0,13.687 5.747,17.657 62.063,25.336c55.688,7.523 82.175,18.337 82.175,58.824c0,40.904 -32.964,67.181 -90.325,67.181Z" style="fill:#1485e0;fill-rule:nonzero;"/></g></svg>