<?xml version="1.0" encoding="UTF-8" standalone="no"?><!DOCTYPE svg PUBLIC "-//W3C//DTD SVG 1.1//EN" "http://www.w3.org/Graphics/SVG/1.1/DTD/svg11.dtd"><svg width="100%" height="100%" viewBox="0 0 512 512" version="1.1" xmlns="http://www.w3.org/2000/svg" xmlns:xlink="http://www.w3.org/1999/xlink" xml:space="preserve" style="fill-rule:evenodd;clip-rule:evenodd;stroke-linejoin:round;stroke-miterlimit:1.41421;"><clipPath id="_clip1"><path id="path3462" d="M0,256c0,74.373 114.618,134.667 256,134.667c141.382,0 256,-60.295 256,-134.667c0,-74.372 -114.618,-134.667 -256,-134.667c-141.382,0 -256,60.297 -256,134.667"/></clipPath><g clip-path="url(#_clip1)"><path d="M0,256c0,74.373 114.618,134.667 256,134.667c141.382,0 256,-60.295 256,-134.667c0,-74.372 -114.618,-134.667 -256,-134.667c-141.382,0 -256,60.297 -256,134.667" style="fill:#1485e0;fill-rule:nonzero;"/></g><path id="path3474" d="M256,380.667c135.861,0 246,-55.815 246,-124.667c0,-68.852 -110.139,-124.669 -246,-124.669c-135.861,0 -246,55.816 -246,124.666c0,68.855 110.139,124.67 246,124.67" style="fill:#c4e1f7;fill-rule:nonzero;"/><g id="g3478"><path id="path3486" d="M139.083,271.454c11.172,0 19.511,-2.06 24.787,-6.121c5.223,-4.02 8.827,-10.984 10.717,-20.698c1.762,-9.079 1.091,-15.419 -1.994,-18.841c-3.155,-3.494 -9.975,-5.266 -20.272,-5.266l-17.852,0l-9.898,50.926l14.512,0Zm-58.391,62.731c-0.829,0 -1.616,-0.37 -2.143,-1.011c-0.528,-0.639 -0.741,-1.481 -0.583,-2.296l26.229,-134.954c0.26,-1.305 1.399,-2.248 2.732,-2.248l56.528,0c17.768,0 30.99,4.824 39.305,14.34c8.361,9.565 10.935,22.937 7.674,39.74c-1.328,6.848 -3.615,13.206 -6.796,18.899c-3.185,5.699 -7.393,10.972 -12.509,15.676c-6.138,5.734 -13.066,9.891 -20.601,12.336c-7.408,2.416 -16.924,3.639 -28.284,3.639l-22.89,0l-6.537,33.631c-0.254,1.306 -1.397,2.248 -2.726,2.248l-29.398,0l-0.001,0Z" style="fill:#1485e0;fill-rule:nonzero;"/><path id="path3490" d="M136.759,223.306l15.563,0c12.426,0 16.744,2.726 18.21,4.351c2.434,2.699 2.893,8.387 1.329,16.451c-1.757,9.028 -5.015,15.429 -9.683,19.023c-4.78,3.68 -12.55,5.545 -23.093,5.545l-11.144,0l8.818,-45.37Zm26.695,-32.408l-56.532,0c-2.659,0 -4.944,1.885 -5.453,4.496l-26.229,134.953c-0.324,1.63 0.111,3.315 1.157,4.595c1.056,1.28 2.63,2.021 4.287,2.021l29.398,0c2.658,0 4.945,-1.885 5.454,-4.495l6.103,-31.385l20.602,0c11.648,0 21.46,-1.27 29.148,-3.775c7.907,-2.569 15.185,-6.926 21.626,-12.948c5.324,-4.907 9.713,-10.407 13.037,-16.352c3.324,-5.944 5.713,-12.592 7.099,-19.722c3.44,-17.694 0.645,-31.861 -8.306,-42.102c-8.857,-10.147 -22.785,-15.286 -41.389,-15.286m-42.252,83.333l17.879,0c11.854,0 20.683,-2.231 26.484,-6.698c5.802,-4.466 9.714,-11.922 11.748,-22.366c1.944,-10.031 1.059,-17.109 -2.658,-21.232c-3.722,-4.123 -11.166,-6.185 -22.336,-6.185l-20.141,0l-10.978,56.481m42.252,-77.777c17.007,0 29.414,4.463 37.213,13.389c7.796,8.927 10.144,21.388 7.033,37.385c-1.281,6.59 -3.446,12.615 -6.495,18.074c-3.047,5.461 -7.037,10.455 -11.963,14.985c-5.871,5.491 -12.389,9.407 -19.565,11.734c-7.177,2.343 -16.316,3.507 -27.427,3.507l-25.185,0l-6.974,35.879l-29.398,0l26.229,-134.953l56.532,0" style="fill:#fff;fill-rule:nonzero;"/><path id="path3494" d="M277.833,298.306c-0.829,0 -1.615,-0.371 -2.142,-1.012c-0.528,-0.638 -0.743,-1.481 -0.584,-2.296l11.602,-59.713c1.104,-5.678 0.832,-9.754 -0.765,-11.476c-0.981,-1.053 -3.916,-2.818 -12.601,-2.818l-21.019,0l-14.588,75.066c-0.255,1.306 -1.398,2.249 -2.727,2.249l-29.166,0c-0.83,0 -1.616,-0.371 -2.144,-1.012c-0.528,-0.638 -0.741,-1.481 -0.583,-2.296l26.229,-134.954c0.254,-1.305 1.399,-2.248 2.727,-2.248l29.167,0c0.83,0 1.616,0.371 2.143,1.01c0.528,0.641 0.741,1.483 0.584,2.298l-6.33,32.572l22.614,0c17.226,0 28.907,3.037 35.711,9.285c6.935,6.374 9.099,16.565 6.433,30.296l-12.204,62.799c-0.255,1.307 -1.396,2.25 -2.727,2.25l-29.63,0Z" style="fill:#1485e0;fill-rule:nonzero;"/><path id="path3498" d="M261.241,155.019l-29.167,0c-2.66,0 -4.946,1.885 -5.454,4.495l-26.229,134.954c-0.317,1.629 0.111,3.314 1.166,4.594c1.056,1.281 2.628,2.021 4.287,2.021l29.167,0c2.659,0 4.946,-1.885 5.454,-4.495l14.151,-72.819l18.731,0c8.669,0 10.488,1.851 10.561,1.931c0.528,0.565 1.223,3.185 0.084,9.056l-11.602,59.713c-0.315,1.629 0.111,3.312 1.166,4.592c1.056,1.282 2.63,2.022 4.288,2.022l29.629,0c2.658,0 4.945,-1.885 5.454,-4.495l12.193,-62.801c2.865,-14.741 0.415,-25.8 -7.277,-32.87c-7.341,-6.741 -19.637,-10.019 -37.593,-10.019l-19.243,0l5.687,-29.264c0.315,-1.629 -0.111,-3.315 -1.166,-4.592c-1.056,-1.283 -2.628,-2.023 -4.287,-2.023m0,5.555l-6.972,35.88l25.981,0c16.35,0 27.627,2.853 33.833,8.553c6.207,5.704 8.065,14.945 5.586,27.721l-12.204,62.8l-29.63,0l11.602,-59.711c1.321,-6.793 0.836,-11.426 -1.456,-13.897c-2.297,-2.47 -7.176,-3.707 -14.639,-3.707l-23.315,0l-15.028,77.315l-29.167,0l26.242,-134.954l29.167,0" style="fill:#fff;fill-rule:nonzero;"/><path id="path3502" d="M368.546,271.454c11.172,0 19.511,-2.06 24.787,-6.121c5.223,-4.018 8.827,-10.983 10.718,-20.698c1.762,-9.079 1.091,-15.419 -1.995,-18.841c-3.155,-3.494 -9.975,-5.266 -20.272,-5.266l-17.852,0l-9.898,50.926l14.512,0Zm-58.39,62.731c-0.829,0 -1.616,-0.37 -2.143,-1.011c-0.528,-0.639 -0.743,-1.481 -0.583,-2.296l26.228,-134.954c0.26,-1.305 1.398,-2.248 2.732,-2.248l56.528,0c17.768,0 30.99,4.824 39.305,14.34c8.361,9.565 10.935,22.935 7.676,39.74c-1.328,6.848 -3.614,13.206 -6.796,18.899c-3.185,5.699 -7.391,10.972 -12.509,15.676c-6.14,5.734 -13.068,9.891 -20.603,12.336c-7.408,2.416 -16.924,3.639 -28.284,3.639l-22.892,0l-6.534,33.631c-0.254,1.306 -1.398,2.248 -2.727,2.248l-29.398,0Z" style="fill:#1485e0;fill-rule:nonzero;"/><path id="path3506" d="M366.222,223.306l15.563,0c12.426,0 16.744,2.726 18.21,4.351c2.436,2.699 2.894,8.387 1.329,16.45c-1.757,9.028 -5.016,15.43 -9.683,19.024c-4.78,3.68 -12.55,5.545 -23.093,5.545l-11.143,0l8.817,-45.37Zm26.695,-32.408l-56.531,0c-2.659,0 -4.944,1.885 -5.454,4.496l-26.228,134.953c-0.317,1.63 0.111,3.315 1.166,4.595c1.056,1.28 2.627,2.021 4.287,2.021l29.399,0c2.657,0 4.944,-1.885 5.453,-4.495l6.097,-31.385l20.602,0c11.648,0 21.457,-1.27 29.147,-3.775c7.907,-2.569 15.185,-6.926 21.626,-12.95c5.324,-4.898 9.703,-10.398 13.027,-16.347c3.325,-5.951 5.714,-12.587 7.103,-19.724c3.44,-17.69 0.645,-31.855 -8.305,-42.099c-8.855,-10.145 -22.786,-15.29 -41.387,-15.29m-42.252,83.333l17.879,0c11.854,0 20.683,-2.231 26.484,-6.698c5.803,-4.466 9.714,-11.922 11.748,-22.366c1.946,-10.031 1.06,-17.109 -2.658,-21.232c-3.722,-4.123 -11.166,-6.185 -22.336,-6.185l-20.141,0l-10.976,56.481m42.25,-77.777c17.007,0 29.414,4.463 37.213,13.389c7.796,8.927 10.144,21.388 7.033,37.385c-1.281,6.59 -3.446,12.615 -6.495,18.074c-3.047,5.461 -7.037,10.455 -11.963,14.985c-5.871,5.491 -12.389,9.407 -19.565,11.734c-7.177,2.343 -16.316,3.507 -27.427,3.507l-25.185,0l-6.972,35.879l-29.399,0l26.228,-134.953l56.532,0" style="fill:#fff;fill-rule:nonzero;"/></g></svg>