<?xml version="1.0" encoding="UTF-8" standalone="no"?><!DOCTYPE svg PUBLIC "-//W3C//DTD SVG 1.1//EN" "http://www.w3.org/Graphics/SVG/1.1/DTD/svg11.dtd"><svg width="100%" height="100%" viewBox="0 0 512 512" version="1.1" xmlns="http://www.w3.org/2000/svg" xmlns:xlink="http://www.w3.org/1999/xlink" xml:space="preserve" xmlns:serif="http://www.serif.com/" style="fill-rule:evenodd;clip-rule:evenodd;stroke-linejoin:round;stroke-miterlimit:1.41421;"><path d="M440.872,284.744c-17.862,0.094 -33.386,4.396 -46.385,10.755c-4.77,-9.445 -9.539,-17.862 -10.381,-24.034c-0.935,-7.201 -2.057,-11.597 -0.935,-20.2c1.122,-8.604 6.172,-20.855 6.079,-21.79c-0.094,-0.935 -1.122,-5.331 -11.41,-5.424c-10.287,-0.094 -19.171,1.964 -20.2,4.676c-1.028,2.712 -2.992,8.884 -4.301,15.243c-1.777,9.352 -20.575,42.738 -31.329,60.226c-3.46,-6.827 -6.453,-12.812 -7.108,-17.581c-0.935,-7.201 -2.057,-11.597 -0.935,-20.2c1.122,-8.604 6.172,-20.855 6.079,-21.79c-0.094,-0.935 -1.122,-5.331 -11.409,-5.424c-10.288,-0.094 -19.172,1.964 -20.201,4.676c-1.028,2.712 -2.15,9.071 -4.301,15.243c-2.151,6.172 -27.121,61.91 -33.667,76.311c-3.367,7.388 -6.266,13.28 -8.323,17.301c0,0 -0.094,0.281 -0.374,0.749c-1.777,3.46 -2.806,5.33 -2.806,5.33l0,0.094c-1.403,2.525 -2.899,4.863 -3.647,4.863c-0.561,0 -1.59,-6.734 0.187,-15.899c3.741,-19.358 12.625,-49.471 12.531,-50.5c0,-0.561 1.684,-5.798 -5.798,-8.51c-7.294,-2.712 -9.913,1.777 -10.567,1.777c-0.655,0 -1.123,1.59 -1.123,1.59c0,0 8.136,-33.854 -15.524,-33.854c-14.776,0 -35.163,16.179 -45.263,30.768c-6.359,3.46 -19.919,10.848 -34.415,18.797c-5.517,3.086 -11.222,6.172 -16.553,9.071c-0.374,-0.374 -0.748,-0.841 -1.122,-1.215c-28.617,-30.581 -81.548,-52.184 -79.304,-93.239c0.842,-14.963 5.985,-54.241 101.655,-101.935c78.743,-38.81 141.401,-28.056 152.249,-4.209c15.524,34.041 -33.574,97.26 -114.935,106.425c-31.048,3.46 -47.32,-8.51 -51.435,-12.999c-4.302,-4.676 -4.957,-4.957 -6.547,-4.022c-2.618,1.403 -0.935,5.612 0,8.043c2.432,6.359 12.438,17.582 29.365,23.099c14.963,4.863 51.342,7.575 95.39,-9.445c49.284,-19.078 87.814,-72.103 76.498,-116.525c-11.316,-45.076 -86.131,-59.945 -156.925,-34.789c-42.083,14.963 -87.72,38.53 -120.545,69.204c-38.998,36.473 -45.17,68.176 -42.645,81.455c9.071,47.134 74.067,77.808 100.065,100.533c-1.309,0.748 -2.525,1.403 -3.553,1.964c-13,6.453 -62.565,32.357 -74.909,59.758c-14.028,31.049 2.244,53.306 12.999,56.299c33.386,9.258 67.708,-7.388 86.131,-34.883c18.423,-27.494 16.179,-63.219 7.668,-79.584c-0.093,-0.187 -0.187,-0.374 -0.374,-0.562c3.367,-1.963 6.827,-4.021 10.194,-5.985c6.64,-3.928 13.186,-7.575 18.797,-10.567c-3.179,8.697 -5.517,19.077 -6.64,34.04c-1.402,17.582 5.798,40.401 15.244,49.378c4.208,3.928 9.165,4.022 12.344,4.022c11.036,0 15.992,-9.165 21.51,-20.013c6.733,-13.28 12.812,-28.711 12.812,-28.711c0,0 -7.575,41.71 12.999,41.71c7.481,0 15.056,-9.726 18.423,-14.683l0,0.094c0,0 0.187,-0.281 0.561,-0.935c0.748,-1.216 1.216,-1.964 1.216,-1.964c0,0 0,-0.094 0,-0.187c2.993,-5.237 9.726,-17.114 19.732,-36.847c12.906,-25.437 25.344,-57.233 25.344,-57.233c0,0 1.122,7.762 4.956,20.668c2.245,7.575 6.921,15.898 10.662,23.94c-2.993,4.209 -4.863,6.547 -4.863,6.547l0.093,0.093c-2.431,3.18 -5.05,6.64 -7.949,10.007c-10.193,12.157 -22.351,26.091 -24.034,30.113c-1.964,4.769 -1.497,8.229 2.244,11.035c2.712,2.057 7.575,2.338 12.532,2.057c9.165,-0.654 15.617,-2.899 18.797,-4.302c4.956,-1.776 10.755,-4.488 16.179,-8.51c10.006,-7.388 16.085,-17.955 15.524,-31.89c-0.281,-7.668 -2.806,-15.337 -5.892,-22.538c0.935,-1.309 1.777,-2.618 2.712,-3.927c15.805,-23.1 28.056,-48.443 28.056,-48.443c0,0 1.122,7.762 4.956,20.667c1.871,6.547 5.705,13.654 9.072,20.575c-14.87,12.064 -24.035,26.091 -27.308,35.256c-5.891,17.021 -1.309,24.689 7.388,26.466c3.928,0.842 9.539,-1.029 13.654,-2.806c5.237,-1.683 11.409,-4.582 17.301,-8.884c10.006,-7.388 19.639,-17.675 19.078,-31.609c-0.281,-6.359 -1.964,-12.625 -4.302,-18.704c12.625,-5.237 28.897,-8.136 49.658,-5.705c44.515,5.237 53.306,33.013 51.623,44.702c-1.684,11.69 -11.035,18.05 -14.122,20.013c-3.086,1.964 -4.114,2.619 -3.834,4.022c0.374,2.057 1.87,1.964 4.489,1.59c3.647,-0.655 23.38,-9.446 24.221,-30.955c1.403,-27.495 -24.782,-57.514 -71.074,-57.234Zm-343.401,115.777c-14.776,16.085 -35.35,22.164 -44.234,17.02c-9.539,-5.518 -5.798,-29.271 12.344,-46.292c11.035,-10.38 25.25,-20.013 34.696,-25.905c2.151,-1.309 5.33,-3.179 9.165,-5.517c0.654,-0.374 1.028,-0.561 1.028,-0.561c0.748,-0.468 1.497,-0.935 2.245,-1.403c6.639,24.315 0.28,45.731 -15.244,62.658Zm107.547,-73.132c-5.144,12.531 -15.898,44.608 -22.445,42.831c-5.611,-1.496 -9.071,-25.811 -1.122,-49.845c4.021,-12.064 12.531,-26.466 17.488,-32.077c8.043,-8.978 16.927,-11.97 19.078,-8.323c2.712,4.769 -9.82,39.558 -12.999,47.414Zm88.749,42.457c-2.151,1.123 -4.208,1.871 -5.143,1.31c-0.655,-0.374 0.935,-1.871 0.935,-1.871c0,0 11.128,-11.97 15.524,-17.394c2.525,-3.18 5.517,-6.921 8.697,-11.129c0,0.374 0,0.842 0,1.216c0,14.308 -13.841,23.941 -20.013,27.868Zm68.456,-15.617c-1.59,-1.122 -1.309,-4.863 4.021,-16.553c2.058,-4.582 6.92,-12.251 15.244,-19.639c0.935,2.993 1.589,5.892 1.496,8.604c-0.094,18.049 -12.999,24.782 -20.761,27.588Z" style="fill:#1485e0;fill-rule:nonzero;"/></svg>