<svg width="1024" height="1024" viewBox="0 0 1024 1024" fill="none" xmlns="http://www.w3.org/2000/svg">
<g clip-path="url(#clip0)">
<path d="M58.2656 494.038C60.3053 474.753 69.4497 456.902 83.9357 443.927C98.4216 430.952 117.223 423.773 136.715 423.773C156.207 423.773 175.008 430.952 189.494 443.927C203.98 456.902 213.125 474.753 215.164 494.038H253.152C255.192 474.753 264.336 456.902 278.822 443.927C293.308 430.952 312.109 423.773 331.601 423.773C351.093 423.773 369.895 430.952 384.381 443.927C398.867 456.902 408.011 474.753 410.051 494.038H447.378C445.66 469.884 436.345 446.881 420.752 428.289C405.16 409.696 384.082 396.456 360.505 390.446C336.928 384.435 312.047 385.959 289.389 394.801C266.73 403.643 247.443 419.354 234.261 439.709C221.095 419.312 201.804 403.56 179.127 394.691C156.451 385.821 131.542 384.284 107.938 390.299C84.3334 396.313 63.2338 409.573 47.635 428.195C32.0362 446.817 22.7312 469.855 21.0413 494.038H58.2656Z" fill="#66B8B8"/>
<path d="M410.092 509.979C408.145 529.343 399.035 547.297 384.531 560.355C370.026 573.413 351.163 580.644 331.601 580.644C312.04 580.644 293.176 573.413 278.672 560.355C264.168 547.297 255.058 529.343 253.111 509.979H215.206C213.258 529.343 204.148 547.297 189.644 560.355C175.14 573.413 156.276 580.644 136.715 580.644C117.154 580.644 98.2899 573.413 83.7857 560.355C69.2816 547.297 60.1716 529.343 58.2243 509.979H21C22.6179 534.184 31.8669 557.265 47.4313 575.939C62.9958 594.613 84.0829 607.929 107.693 613.992C131.303 620.055 156.234 618.557 178.939 609.71C201.644 600.864 220.966 585.12 234.158 564.718C247.34 585.145 266.666 600.914 289.381 609.777C312.097 618.64 337.045 620.146 360.671 614.081C384.298 608.015 405.398 594.687 420.966 575.996C436.535 557.304 445.778 534.202 447.378 509.979H410.092Z" fill="#CDE3E4"/>
<path d="M450.884 423.48C446.463 423.48 442.14 422.176 438.464 419.732C434.788 417.288 431.923 413.815 430.231 409.751C428.539 405.687 428.096 401.216 428.958 396.901C429.821 392.587 431.95 388.624 435.077 385.514C438.203 382.404 442.186 380.285 446.523 379.427C450.859 378.569 455.354 379.01 459.439 380.693C463.524 382.376 467.015 385.227 469.472 388.884C471.928 392.542 473.239 396.841 473.239 401.24C473.228 407.135 470.87 412.786 466.68 416.954C462.489 421.123 456.81 423.47 450.884 423.48V423.48ZM450.884 387.309C448.115 387.309 445.407 388.126 443.104 389.657C440.802 391.188 439.007 393.364 437.947 395.909C436.887 398.455 436.61 401.256 437.15 403.958C437.69 406.66 439.024 409.143 440.982 411.091C442.941 413.039 445.436 414.366 448.152 414.903C450.869 415.441 453.684 415.165 456.243 414.111C458.801 413.056 460.988 411.271 462.527 408.98C464.066 406.689 464.887 403.995 464.887 401.24C464.882 397.547 463.404 394.007 460.78 391.396C458.155 388.784 454.596 387.315 450.884 387.309Z" fill="#F49600"/>
<path d="M532.839 477.275C533.157 476.924 533.587 476.692 534.056 476.619C534.338 476.643 534.611 476.725 534.859 476.859C535.108 476.994 535.326 477.177 535.5 477.398L539.253 481.502C540.264 482.507 540.264 483.164 539.253 484.272C531.394 491.576 521.033 495.626 510.278 495.597C499.784 495.36 489.799 491.047 482.461 483.579C475.123 476.112 471.015 466.083 471.015 455.64C471.015 445.197 475.123 435.169 482.461 427.702C489.799 420.234 499.784 415.921 510.278 415.684C521.037 415.652 531.402 419.711 539.253 427.03C540.14 427.912 540.037 428.569 539.15 429.553L535.273 433.657C534.947 434.068 534.474 434.34 533.953 434.416C533.451 434.289 532.994 434.026 532.633 433.657C529.763 430.641 526.293 428.251 522.444 426.641C518.596 425.03 514.453 424.233 510.278 424.301C493.243 424.301 480.189 439.381 480.189 455.569C480.189 471.756 493.243 486.816 510.278 486.816C514.496 486.858 518.678 486.033 522.561 484.391C526.443 482.749 529.943 480.327 532.839 477.275V477.275Z" fill="#384E5A"/>
<path d="M551.153 492.253V418.946C551.153 417.51 551.606 417.079 553.029 417.079H579.488C592.089 417.079 606.484 422.352 606.484 440.202C606.484 453.189 599.39 460.123 589.099 462.873L609.722 491.924C610.712 493.463 609.722 494.12 608.278 494.12H601.534C600.88 494.118 600.238 493.944 599.673 493.617C599.108 493.289 598.641 492.818 598.317 492.253L578.189 463.857H560.598V492.253C560.598 493.791 560.144 494.12 558.701 494.12H552.947C551.606 494.12 551.153 493.832 551.153 492.253ZM560.68 425.101V455.876H578.932C591.656 455.876 597.183 449.947 597.183 440.263C597.183 429.676 589.985 425.163 578.932 425.163L560.68 425.101Z" fill="#384E5A"/>
<path d="M671.508 418.844V492.253C671.508 493.689 671.075 494.12 669.631 494.12H620.404C618.961 494.12 618.507 493.689 618.507 492.253V487.677C618.507 486.241 618.961 485.81 620.404 485.81H662.001V459.344H622.157C620.837 459.344 620.404 458.913 620.404 457.477V452.963C620.404 451.527 620.837 451.096 622.157 451.096H662.001V425.327H620.404C618.961 425.327 618.507 424.773 618.507 423.46V418.844C618.507 417.51 618.961 417.079 620.404 417.079H669.631C671.075 417.079 671.508 417.51 671.508 418.844Z" fill="#384E5A"/>
<path d="M681.551 492.253L717.847 416.853C718.404 415.869 718.734 415.212 719.27 415.212H719.6C720.26 415.212 720.59 415.869 721.147 416.853L757.423 492.253C757.876 493.237 757.423 494.12 756.33 494.12H749.235C748.019 494.12 747.585 493.689 746.802 492.253L738.553 474.321H700.462L692.213 492.253C691.429 493.689 690.996 494.12 689.779 494.12H682.706C681.551 494.12 681.118 493.237 681.551 492.253ZM735.315 466.053L719.6 431.605H719.373L703.762 466.053H735.315Z" fill="#384E5A"/>
<path d="M746.905 423.788V418.844C746.905 417.51 747.359 417.079 748.802 417.079H810.527C812.073 417.079 812.3 417.51 812.3 418.844V423.788C812.3 425.224 811.867 425.655 810.527 425.655H784.418V492.253C784.418 493.689 783.985 494.12 782.541 494.12H776.684C775.241 494.12 774.911 493.689 774.911 492.253V425.655H748.802C747.255 425.655 746.905 425.101 746.905 423.788Z" fill="#384E5A"/>
<path d="M820.652 418.844C820.652 417.51 821.085 417.079 822.529 417.079H828.386C829.83 417.079 830.159 417.51 830.159 418.844V492.253C830.159 493.689 829.726 494.12 828.386 494.12H822.715C821.271 494.12 820.838 493.689 820.838 492.253L820.652 418.844Z" fill="#384E5A"/>
<path d="M840.038 417.079H847.112C848.328 417.079 848.782 417.407 849.545 418.844L876.87 477.727V477.829L904.216 418.844C904.979 417.407 905.536 417.079 906.65 417.079H913.724C913.944 417.042 914.171 417.071 914.376 417.163C914.58 417.254 914.752 417.403 914.872 417.592C914.991 417.781 915.051 418 915.045 418.223C915.039 418.446 914.966 418.662 914.837 418.844L878.541 494.345C877.881 495.33 877.654 496.007 876.994 496.007H876.664C876.107 496.007 875.881 495.453 875.221 494.345L838.924 418.844C838.805 418.66 838.74 418.446 838.739 418.227C838.737 418.008 838.799 417.793 838.916 417.608C839.033 417.423 839.2 417.274 839.399 417.181C839.598 417.087 839.82 417.052 840.038 417.079Z" fill="#384E5A"/>
<path d="M925.417 417.079H974.643C976.087 417.079 976.541 417.51 976.541 418.844V423.46C976.541 424.773 976.087 425.327 974.643 425.327H933.047V451.096H972.891C974.21 451.096 974.643 451.527 974.643 452.963V457.477C974.643 458.913 974.21 459.344 972.891 459.344H933.047V485.872H974.643C976.087 485.872 976.541 486.303 976.541 487.739V492.253C976.541 493.689 976.087 494.12 974.643 494.12H925.417C923.973 494.12 923.54 493.689 923.54 492.253V418.844C923.54 417.51 923.973 417.079 925.417 417.079Z" fill="#384E5A"/>
<path d="M778.85 623.478C778.85 632.177 785.759 640.302 794.936 640.302C799.286 640.342 803.502 638.803 806.794 635.973V626.904H795.905C795.183 626.904 794.956 626.74 794.956 625.96V623.478C794.956 622.698 795.183 622.473 795.905 622.473H810.98C811.805 622.473 811.991 622.76 811.991 623.478V636.629C811.993 637.019 811.91 637.405 811.746 637.76C811.582 638.114 811.342 638.429 811.042 638.681C806.662 642.652 800.945 644.848 795.018 644.836C789.275 644.836 783.767 642.566 779.706 638.526C775.646 634.486 773.364 629.007 773.364 623.293C773.364 617.58 775.646 612.1 779.706 608.06C783.767 604.02 789.275 601.751 795.018 601.751C800.779 601.768 806.325 603.927 810.568 607.803C811.166 608.337 810.98 608.624 810.568 609.219L808.609 611.27C808.53 611.396 808.424 611.504 808.3 611.585C808.175 611.667 808.034 611.72 807.887 611.742C807.639 611.742 807.474 611.64 807.165 611.332C805.592 609.74 803.709 608.484 801.631 607.641C799.553 606.798 797.324 606.385 795.08 606.428C792.887 606.482 790.726 606.965 788.722 607.852C786.718 608.739 784.91 610.011 783.401 611.596C781.893 613.18 780.714 615.046 779.933 617.085C779.152 619.124 778.784 621.297 778.85 623.478Z" fill="#384E5A"/>
<path d="M820.034 643.215V603.741C820.034 602.961 820.261 602.735 821.044 602.735H835.274C842.08 602.735 849.71 605.587 849.71 615.169C849.933 618.002 849.106 620.818 847.385 623.085C845.664 625.353 843.168 626.916 840.368 627.479L851.504 643.113C852.041 643.933 851.504 644.302 850.721 644.302H847.091C846.74 644.295 846.397 644.199 846.094 644.023C845.791 643.847 845.538 643.598 845.359 643.297L834.532 628.012H825.045V643.297C825.045 644.118 824.818 644.302 824.035 644.302H820.941C820.261 644.22 820.034 644.036 820.034 643.215ZM825.148 607.065V623.601H835.088C841.935 623.601 844.905 620.4 844.905 615.169C844.905 609.486 841.049 607.065 835.088 607.065H825.148Z" fill="#384E5A"/>
<path d="M875.922 601.956C880.212 601.899 884.423 603.112 888.018 605.442C891.614 607.772 894.431 611.113 896.113 615.041C897.795 618.968 898.265 623.304 897.463 627.498C896.661 631.691 894.624 635.553 891.61 638.592C888.596 641.63 884.742 643.709 880.538 644.563C876.334 645.417 871.97 645.008 868 643.388C864.03 641.768 860.634 639.009 858.244 635.464C855.854 631.919 854.577 627.747 854.577 623.478C854.56 617.814 856.795 612.374 860.793 608.343C864.791 604.311 870.229 602.015 875.922 601.956ZM875.922 640.302C879.3 640.457 882.648 639.603 885.534 637.848C888.42 636.094 890.712 633.519 892.114 630.457C893.516 627.395 893.964 623.985 893.4 620.668C892.836 617.35 891.286 614.276 888.951 611.843C886.615 609.409 883.6 607.727 880.295 607.014C876.99 606.301 873.545 606.589 870.406 607.84C867.266 609.092 864.576 611.251 862.681 614.038C860.786 616.825 859.773 620.113 859.774 623.478C859.836 632.177 866.806 640.302 875.922 640.302Z" fill="#384E5A"/>
<path d="M904.319 602.735H907.475C908.238 602.735 908.485 602.961 908.485 603.679V626.863C908.485 636.403 913.311 640.486 920.343 640.486C927.376 640.486 932.181 636.383 932.181 626.863V603.679C932.181 602.961 932.367 602.735 933.15 602.735H936.306C937.069 602.735 937.316 602.961 937.316 603.679V627.191C937.316 638.989 930.036 645.021 920.343 645.021C910.651 645.021 903.35 638.989 903.35 627.191V603.679C903.35 602.92 903.598 602.735 904.319 602.735Z" fill="#384E5A"/>
<path d="M947.194 602.735H961.301C968.457 602.735 975.963 605.526 975.963 615.045C975.963 624.565 968.457 627.848 961.301 627.848H951.298V643.133C951.298 643.892 951.113 644.138 950.35 644.138H947.194C946.349 644.138 946.163 643.892 946.163 643.133V603.679C946.163 602.92 946.452 602.735 947.194 602.735ZM951.319 607.065V623.601H961.032C968.89 623.601 971.034 619.498 971.034 615.128C971.034 611.024 968.972 607.065 961.032 607.065H951.319Z" fill="#384E5A"/>
<path d="M532.839 570.442C533.135 570.087 533.541 569.841 533.994 569.744C534.274 569.767 534.547 569.845 534.795 569.976C535.043 570.106 535.262 570.286 535.438 570.504L539.191 574.607C540.202 575.592 540.202 576.248 539.191 577.356C531.336 584.668 520.974 588.725 510.216 588.702C499.722 588.465 489.737 584.152 482.399 576.684C475.061 569.217 470.953 559.189 470.953 548.746C470.953 538.303 475.061 528.274 482.399 520.807C489.737 513.339 499.722 509.026 510.216 508.789C520.971 508.76 531.332 512.81 539.191 520.114C540.078 520.997 539.975 521.653 539.088 522.658L535.211 526.762C534.888 527.181 534.416 527.46 533.891 527.541C533.385 527.414 532.926 527.143 532.571 526.762C529.701 523.746 526.231 521.356 522.382 519.746C518.534 518.135 514.391 517.338 510.216 517.406C493.182 517.406 480.127 532.486 480.127 548.674C480.127 564.862 493.243 580.003 510.278 580.003C514.497 580.038 518.678 579.207 522.56 577.562C526.442 575.917 529.942 573.493 532.839 570.442Z" fill="#384E5A"/>
<path d="M588.171 508.81C596.14 508.7 603.962 510.951 610.642 515.276C617.321 519.601 622.557 525.805 625.683 533.099C628.808 540.393 629.682 548.446 628.194 556.236C626.706 564.025 622.922 571.198 617.325 576.843C611.727 582.487 604.568 586.347 596.759 587.932C588.95 589.518 580.844 588.756 573.471 585.745C566.098 582.734 559.792 577.609 555.355 571.022C550.918 564.436 548.551 556.685 548.554 548.756C548.526 538.245 552.674 528.149 560.094 520.667C567.515 513.185 577.606 508.923 588.171 508.81ZM588.171 580.023C605.432 580.023 618.259 564.944 618.259 548.756C618.259 532.568 605.432 517.488 588.171 517.488C571.239 517.488 558.185 532.465 558.185 548.756C558.185 565.046 571.239 580.003 588.171 580.003V580.023Z" fill="#384E5A"/>
<path d="M679.571 508.81C687.541 508.696 695.365 510.943 702.048 515.266C708.73 519.588 713.969 525.791 717.098 533.084C720.227 540.378 721.104 548.432 719.618 556.223C718.132 564.014 714.35 571.189 708.753 576.835C703.157 582.481 695.998 586.343 688.188 587.93C680.379 589.517 672.271 588.757 664.897 585.747C657.523 582.736 651.216 577.611 646.778 571.024C642.34 564.437 639.972 556.686 639.975 548.756C639.947 538.249 644.093 528.156 651.508 520.674C658.924 513.193 669.01 508.929 679.571 508.81V508.81ZM679.571 580.023C696.833 580.023 709.681 564.944 709.681 548.756C709.681 532.568 696.833 517.488 679.571 517.488C662.64 517.488 649.586 532.465 649.586 548.756C649.586 565.046 662.64 580.003 679.571 580.003V580.023Z" fill="#384E5A"/>
<path d="M780.293 579.018C781.737 579.018 782.191 579.469 782.191 580.906V585.419C782.191 586.835 781.737 587.286 780.293 587.286H735.274C733.83 587.286 733.397 586.835 733.397 585.419V511.99C733.397 510.677 733.83 510.225 735.274 510.225H741.131C742.471 510.225 742.904 510.677 742.904 511.99V579.018H780.293Z" fill="#384E5A"/>
<path d="M795.658 511.99C795.658 510.677 796.111 510.225 797.534 510.225H803.412C804.855 510.225 805.185 510.677 805.185 511.99V585.419C805.185 586.835 804.732 587.286 803.412 587.286H797.534C796.111 587.286 795.658 586.835 795.658 585.419V511.99Z" fill="#384E5A"/>
<path d="M836.965 585.419C836.965 586.835 836.408 587.286 835.088 587.286H829.231C827.891 587.286 827.458 586.835 827.458 585.419V509.671C827.458 508.912 827.685 508.81 828.448 508.81H829.108C829.409 508.795 829.71 508.857 829.98 508.99C830.251 509.122 830.483 509.322 830.654 509.569L881.676 566.257V512.092C881.676 510.554 882.109 510.225 883.552 510.225H889.409C890.853 510.225 891.183 510.554 891.183 512.092V587.84C891.183 588.599 890.956 588.723 890.296 588.723H889.636C889.31 588.715 888.991 588.632 888.705 588.479C888.418 588.325 888.172 588.106 887.986 587.84L836.965 531.152V585.419Z" fill="#384E5A"/>
<path d="M914.899 548.756C914.899 564.944 927.747 580.023 944.782 580.023C952.855 580.092 960.677 577.233 966.786 571.981V555.137H946.452C945.132 555.137 944.678 554.808 944.678 553.372V548.756C944.678 547.32 945.132 546.889 946.452 546.889H974.437C976.005 546.889 976.335 547.443 976.335 548.756V573.191C976.359 573.942 976.212 574.688 975.905 575.374C975.598 576.06 975.138 576.667 974.561 577.151C966.444 584.574 955.827 588.702 944.802 588.723C934.308 588.486 924.323 584.172 916.985 576.705C909.648 569.237 905.539 559.209 905.539 548.766C905.539 538.323 909.648 528.295 916.985 520.827C924.323 513.36 934.308 509.046 944.802 508.81C955.497 508.833 965.796 512.837 973.674 520.032C974.788 521.017 974.437 521.571 973.571 522.679L969.921 526.516C969.776 526.751 969.581 526.952 969.349 527.105C969.118 527.257 968.855 527.357 968.58 527.398C968.147 527.398 967.817 527.172 967.261 526.639C964.345 523.667 960.848 521.321 956.985 519.747C953.122 518.173 948.976 517.405 944.802 517.488C927.747 517.488 914.899 532.465 914.899 548.756Z" fill="#384E5A"/>
<path d="M994.029 392.91C995.808 392.91 997.548 393.436 999.027 394.419C1000.51 395.403 1001.66 396.801 1002.34 398.437C1003.02 400.073 1003.19 401.873 1002.85 403.608C1002.5 405.344 1001.64 406.938 1000.38 408.188C999.12 409.438 997.516 410.289 995.771 410.632C994.025 410.974 992.216 410.794 990.574 410.114C988.931 409.434 987.528 408.284 986.543 406.811C985.557 405.337 985.033 403.605 985.037 401.835C985.043 399.466 985.993 397.196 987.678 395.523C989.364 393.85 991.648 392.91 994.029 392.91V392.91ZM986.13 401.835C986.126 403.39 986.586 404.911 987.452 406.206C988.317 407.501 989.549 408.512 990.992 409.11C992.435 409.707 994.024 409.866 995.557 409.565C997.091 409.264 998.5 408.517 999.607 407.419C1000.71 406.321 1001.47 404.921 1001.77 403.396C1002.08 401.871 1001.93 400.29 1001.33 398.853C1000.73 397.416 999.719 396.188 998.419 395.324C997.12 394.459 995.592 393.998 994.029 393.998C992.993 393.995 991.966 394.196 991.008 394.588C990.05 394.981 989.179 395.558 988.445 396.286C987.711 397.014 987.129 397.879 986.732 398.831C986.335 399.783 986.13 400.804 986.13 401.835V401.835ZM990.606 397.732C990.606 397.486 990.709 397.424 990.997 397.424H994.194C995.7 397.424 997.514 397.999 997.514 400.132C997.535 400.706 997.355 401.268 997.005 401.725C996.655 402.181 996.158 402.503 995.596 402.635L997.803 405.98C997.968 406.328 997.803 406.431 997.473 406.431H996.194C996.074 406.436 995.955 406.408 995.849 406.35C995.744 406.292 995.657 406.206 995.596 406.103L993.534 402.799H992.812V406.103C992.812 406.349 992.812 406.431 992.441 406.431H991.059C990.771 406.431 990.668 406.431 990.668 406.103L990.606 397.732ZM992.668 399.147V401.076H994.091C994.978 401.076 995.369 400.789 995.369 400.132C995.369 399.476 994.978 399.147 994.091 399.147H992.668Z" fill="#384E5A"/>
</g>
<defs>
<clipPath id="clip0">
<rect width="982" height="266" fill="white" transform="translate(21 379)"/>
</clipPath>
</defs>
</svg>
