<svg width="1024" height="1024" viewBox="0 0 1024 1024" fill="none" xmlns="http://www.w3.org/2000/svg">
<path d="M277.299 513.083C276.686 513.083 276.134 512.869 275.644 512.442C275.215 511.953 275 511.403 275 510.792V451.208C275 450.536 275.215 449.986 275.644 449.558C276.134 449.131 276.686 448.917 277.299 448.917H301.205C310.215 448.917 317.203 451.056 322.168 455.333C327.134 459.611 329.739 465.814 329.984 473.942C330.045 475.714 330.076 478.067 330.076 481C330.076 483.933 330.045 486.256 329.984 487.967C329.677 496.461 327.134 502.786 322.352 506.942C317.632 511.036 310.736 513.083 301.664 513.083H277.299ZM301.205 499.883C305.25 499.883 308.223 498.936 310.124 497.042C312.024 495.086 313.035 492 313.158 487.783C313.28 486.011 313.342 483.719 313.342 480.908C313.342 478.097 313.28 475.836 313.158 474.125C313.035 470.031 311.932 467.006 309.848 465.05C307.825 463.094 304.791 462.117 300.745 462.117H291.55V499.883H301.205Z" fill="black"/>
<path d="M343.116 513.083C342.503 513.083 341.951 512.869 341.461 512.442C341.032 511.953 340.817 511.403 340.817 510.792V451.208C340.817 450.536 341.032 449.986 341.461 449.558C341.951 449.131 342.503 448.917 343.116 448.917H355.437C356.111 448.917 356.662 449.131 357.092 449.558C357.582 449.986 357.827 450.536 357.827 451.208V510.792C357.827 511.464 357.582 512.014 357.092 512.442C356.662 512.869 356.111 513.083 355.437 513.083H343.116Z" fill="black"/>
<path d="M394.626 514C388.803 514 383.807 513.144 379.639 511.433C375.47 509.722 372.313 507.492 370.168 504.742C368.084 501.931 366.981 498.875 366.858 495.575C366.858 495.086 367.042 494.658 367.41 494.292C367.839 493.864 368.329 493.65 368.881 493.65H380.466C381.202 493.65 381.784 493.803 382.213 494.108C382.703 494.353 383.194 494.75 383.684 495.3C384.481 496.889 385.768 498.203 387.546 499.242C389.324 500.281 391.684 500.8 394.626 500.8C398.12 500.8 400.786 500.25 402.625 499.15C404.464 498.05 405.384 496.553 405.384 494.658C405.384 493.314 404.893 492.214 403.912 491.358C402.993 490.503 401.522 489.739 399.499 489.067C397.476 488.394 394.473 487.631 390.488 486.775C383.133 485.247 377.616 483.017 373.938 480.083C370.321 477.089 368.513 472.842 368.513 467.342C368.513 463.614 369.555 460.283 371.639 457.35C373.723 454.417 376.696 452.125 380.558 450.475C384.42 448.825 388.925 448 394.074 448C399.407 448 404.035 448.917 407.958 450.75C411.881 452.583 414.854 454.906 416.877 457.717C418.961 460.467 420.064 463.186 420.187 465.875C420.187 466.425 420.003 466.883 419.635 467.25C419.267 467.617 418.808 467.8 418.256 467.8H406.119C405.384 467.8 404.771 467.678 404.28 467.433C403.851 467.189 403.453 466.792 403.085 466.242C402.717 464.836 401.706 463.644 400.051 462.667C398.457 461.689 396.465 461.2 394.074 461.2C391.316 461.2 389.201 461.689 387.73 462.667C386.259 463.644 385.523 465.081 385.523 466.975C385.523 468.258 385.922 469.328 386.718 470.183C387.577 471.039 388.925 471.833 390.764 472.567C392.664 473.239 395.361 473.942 398.855 474.675C404.556 475.714 409.092 477.028 412.463 478.617C415.896 480.144 418.409 482.161 420.003 484.667C421.597 487.111 422.394 490.197 422.394 493.925C422.394 498.019 421.198 501.594 418.808 504.65C416.478 507.644 413.199 509.967 408.969 511.617C404.801 513.206 400.02 514 394.626 514Z" fill="black"/>
<path d="M447.426 513.083C446.813 513.083 446.261 512.869 445.771 512.442C445.342 511.953 445.127 511.403 445.127 510.792V463.308H428.761C428.148 463.308 427.596 463.094 427.106 462.667C426.677 462.178 426.462 461.628 426.462 461.017V451.208C426.462 450.536 426.677 449.986 427.106 449.558C427.596 449.131 428.148 448.917 428.761 448.917H478.228C478.902 448.917 479.454 449.131 479.883 449.558C480.312 449.986 480.527 450.536 480.527 451.208V461.017C480.527 461.689 480.312 462.239 479.883 462.667C479.454 463.094 478.902 463.308 478.228 463.308H461.862V510.792C461.862 511.403 461.647 511.953 461.218 512.442C460.789 512.869 460.237 513.083 459.563 513.083H447.426Z" fill="black"/>
<path d="M491.182 513.083C490.569 513.083 490.017 512.869 489.527 512.442C489.098 511.953 488.883 511.403 488.883 510.792V451.208C488.883 450.536 489.098 449.986 489.527 449.558C490.017 449.131 490.569 448.917 491.182 448.917H516.191C524.221 448.917 530.473 450.75 534.948 454.417C539.484 458.022 541.752 463.156 541.752 469.817C541.752 474.094 540.741 477.731 538.718 480.725C536.695 483.719 533.906 486.011 530.351 487.6L542.947 510.15C543.131 510.517 543.223 510.853 543.223 511.158C543.223 511.647 543.009 512.106 542.58 512.533C542.212 512.9 541.783 513.083 541.292 513.083H529.064C527.286 513.083 526.029 512.258 525.294 510.608L514.812 490.442H505.433V510.792C505.433 511.464 505.188 512.014 504.698 512.442C504.269 512.869 503.717 513.083 503.043 513.083H491.182ZM516.007 477.425C518.827 477.425 520.972 476.753 522.443 475.408C523.915 474.003 524.65 472.078 524.65 469.633C524.65 467.189 523.915 465.264 522.443 463.858C521.034 462.392 518.888 461.658 516.007 461.658H505.433V477.425H516.007Z" fill="black"/>
<path d="M554.754 513.083C554.141 513.083 553.589 512.869 553.099 512.442C552.67 511.953 552.455 511.403 552.455 510.792V451.208C552.455 450.536 552.67 449.986 553.099 449.558C553.589 449.131 554.141 448.917 554.754 448.917H567.075C567.749 448.917 568.301 449.131 568.73 449.558C569.22 449.986 569.465 450.536 569.465 451.208V510.792C569.465 511.464 569.22 512.014 568.73 512.442C568.301 512.869 567.749 513.083 567.075 513.083H554.754Z" fill="black"/>
<path d="M608.655 514C599.889 514 593.024 511.892 588.059 507.675C583.155 503.397 580.55 497.225 580.243 489.158C580.182 487.508 580.151 484.819 580.151 481.092C580.151 477.303 580.182 474.553 580.243 472.842C580.55 464.897 583.216 458.786 588.243 454.508C593.269 450.169 600.073 448 608.655 448C614.049 448 618.891 448.917 623.182 450.75C627.473 452.522 630.844 455.089 633.296 458.45C635.809 461.75 637.097 465.631 637.158 470.092V470.275C637.158 470.764 636.943 471.192 636.514 471.558C636.147 471.864 635.718 472.017 635.227 472.017H622.814C622.018 472.017 621.405 471.864 620.975 471.558C620.546 471.192 620.179 470.55 619.872 469.633C619.014 466.517 617.665 464.347 615.826 463.125C613.988 461.842 611.566 461.2 608.563 461.2C601.33 461.2 597.59 465.233 597.345 473.3C597.284 474.95 597.253 477.486 597.253 480.908C597.253 484.331 597.284 486.928 597.345 488.7C597.59 496.767 601.33 500.8 608.563 500.8C611.566 500.8 614.018 500.158 615.918 498.875C617.819 497.531 619.137 495.361 619.872 492.367C620.117 491.45 620.454 490.839 620.884 490.533C621.313 490.167 621.956 489.983 622.814 489.983H635.227C635.779 489.983 636.239 490.167 636.606 490.533C637.035 490.9 637.219 491.358 637.158 491.908C637.097 496.369 635.809 500.281 633.296 503.642C630.844 506.942 627.473 509.508 623.182 511.342C618.891 513.114 614.049 514 608.655 514Z" fill="black"/>
<path d="M663.284 513.083C662.671 513.083 662.12 512.869 661.629 512.442C661.2 511.953 660.986 511.403 660.986 510.792V463.308H644.619C644.006 463.308 643.455 463.094 642.964 462.667C642.535 462.178 642.321 461.628 642.321 461.017V451.208C642.321 450.536 642.535 449.986 642.964 449.558C643.455 449.131 644.006 448.917 644.619 448.917H694.086C694.761 448.917 695.312 449.131 695.742 449.558C696.171 449.986 696.385 450.536 696.385 451.208V461.017C696.385 461.689 696.171 462.239 695.742 462.667C695.312 463.094 694.761 463.308 694.086 463.308H677.72V510.792C677.72 511.403 677.505 511.953 677.076 512.442C676.647 512.869 676.096 513.083 675.421 513.083H663.284Z" fill="black"/>
<path d="M736.464 513.083C735.851 513.083 735.3 512.869 734.809 512.442C734.38 511.953 734.166 511.403 734.166 510.792V463.308H717.799C717.186 463.308 716.635 463.094 716.144 462.667C715.715 462.178 715.501 461.628 715.501 461.017V451.208C715.501 450.536 715.715 449.986 716.144 449.558C716.635 449.131 717.186 448.917 717.799 448.917H767.266C767.941 448.917 768.492 449.131 768.921 449.558C769.351 449.986 769.565 450.536 769.565 451.208V461.017C769.565 461.689 769.351 462.239 768.921 462.667C768.492 463.094 767.941 463.308 767.266 463.308H750.9V510.792C750.9 511.403 750.685 511.953 750.256 512.442C749.827 512.869 749.276 513.083 748.601 513.083H736.464Z" fill="black"/>
<path d="M780.22 513.083C779.546 513.083 778.994 512.869 778.565 512.442C778.136 512.014 777.921 511.464 777.921 510.792V451.208C777.921 450.536 778.136 449.986 778.565 449.558C779.055 449.131 779.607 448.917 780.22 448.917H792.081C792.755 448.917 793.307 449.131 793.736 449.558C794.227 449.986 794.472 450.536 794.472 451.208V473.3H817.091V451.208C817.091 450.536 817.305 449.986 817.734 449.558C818.163 449.131 818.715 448.917 819.389 448.917H831.25C831.925 448.917 832.476 449.131 832.905 449.558C833.334 449.986 833.549 450.536 833.549 451.208V510.792C833.549 511.464 833.334 512.014 832.905 512.442C832.476 512.869 831.925 513.083 831.25 513.083H819.389C818.715 513.083 818.163 512.869 817.734 512.442C817.305 512.014 817.091 511.464 817.091 510.792V487.967H794.472V510.792C794.472 511.464 794.227 512.014 793.736 512.442C793.307 512.869 792.755 513.083 792.081 513.083H780.22Z" fill="black"/>
<path d="M848.731 513.083C848.118 513.083 847.566 512.869 847.076 512.442C846.647 511.953 846.432 511.403 846.432 510.792V451.208C846.432 450.536 846.647 449.986 847.076 449.558C847.566 449.131 848.118 448.917 848.731 448.917H873.74C881.77 448.917 888.023 450.75 892.497 454.417C897.033 458.022 899.301 463.156 899.301 469.817C899.301 474.094 898.29 477.731 896.267 480.725C894.244 483.719 891.455 486.011 887.9 487.6L900.497 510.15C900.681 510.517 900.773 510.853 900.773 511.158C900.773 511.647 900.558 512.106 900.129 512.533C899.761 512.9 899.332 513.083 898.842 513.083H886.613C884.835 513.083 883.579 512.258 882.843 510.608L872.361 490.442H862.983V510.792C862.983 511.464 862.737 512.014 862.247 512.442C861.818 512.869 861.266 513.083 860.592 513.083H848.731ZM873.556 477.425C876.376 477.425 878.522 476.753 879.993 475.408C881.464 474.003 882.199 472.078 882.199 469.633C882.199 467.189 881.464 465.264 879.993 463.858C878.583 462.392 876.437 461.658 873.556 461.658H862.983V477.425H873.556Z" fill="black"/>
<path d="M912.303 513.083C911.69 513.083 911.139 512.869 910.648 512.442C910.219 511.953 910.005 511.403 910.005 510.792V451.208C910.005 450.536 910.219 449.986 910.648 449.558C911.139 449.131 911.69 448.917 912.303 448.917H955.242C955.916 448.917 956.468 449.131 956.897 449.558C957.326 449.986 957.541 450.536 957.541 451.208V459.825C957.541 460.436 957.326 460.986 956.897 461.475C956.468 461.903 955.916 462.117 955.242 462.117H925.911V474.492H953.219C953.894 474.492 954.445 474.736 954.874 475.225C955.303 475.653 955.518 476.203 955.518 476.875V484.85C955.518 485.461 955.303 486.011 954.874 486.5C954.445 486.928 953.894 487.142 953.219 487.142H925.911V499.883H955.978C956.652 499.883 957.204 500.097 957.633 500.525C958.062 500.953 958.276 501.503 958.276 502.175V510.792C958.276 511.403 958.062 511.953 957.633 512.442C957.204 512.869 956.652 513.083 955.978 513.083H912.303Z" fill="black"/>
<path d="M971.027 513.083C970.414 513.083 969.862 512.869 969.372 512.442C968.943 511.953 968.728 511.403 968.728 510.792V451.208C968.728 450.536 968.943 449.986 969.372 449.558C969.862 449.131 970.414 448.917 971.027 448.917H1013.97C1014.64 448.917 1015.19 449.131 1015.62 449.558C1016.05 449.986 1016.26 450.536 1016.26 451.208V459.825C1016.26 460.436 1016.05 460.986 1015.62 461.475C1015.19 461.903 1014.64 462.117 1013.97 462.117H984.635V474.492H1011.94C1012.62 474.492 1013.17 474.736 1013.6 475.225C1014.03 475.653 1014.24 476.203 1014.24 476.875V484.85C1014.24 485.461 1014.03 486.011 1013.6 486.5C1013.17 486.928 1012.62 487.142 1011.94 487.142H984.635V499.883H1014.7C1015.38 499.883 1015.93 500.097 1016.36 500.525C1016.79 500.953 1017 501.503 1017 502.175V510.792C1017 511.403 1016.79 511.953 1016.36 512.442C1015.93 512.869 1015.38 513.083 1014.7 513.083H971.027Z" fill="black"/>
<path d="M12.4473 574.225C11.2613 574.225 10.194 573.811 9.24524 572.983C8.41508 572.037 8 570.972 8 569.789V454.437C8 453.135 8.41508 452.07 9.24524 451.242C10.194 450.414 11.2613 450 12.4473 450H58.6989C76.1322 450 89.6519 454.141 99.258 462.423C108.864 470.704 113.904 482.713 114.379 498.448C114.497 501.879 114.557 506.434 114.557 512.113C114.557 517.792 114.497 522.287 114.379 525.6C113.786 542.045 108.864 554.29 99.6138 562.335C90.4821 570.262 77.1403 574.225 59.5884 574.225H12.4473ZM58.6989 548.67C66.5261 548.67 72.2779 546.837 75.9543 543.169C79.6307 539.383 81.5875 533.408 81.8247 525.245C82.0619 521.814 82.1805 517.377 82.1805 511.935C82.1805 506.493 82.0619 502.115 81.8247 498.803C81.5875 490.876 79.4528 485.02 75.4206 481.234C71.507 477.448 65.6366 475.555 57.8095 475.555H40.0204V548.67H58.6989Z" fill="black"/>
<path d="M180.7 576C169.196 576 159.531 574.225 151.704 570.676C143.995 567.127 138.243 562.749 134.448 557.544C130.772 552.22 128.815 546.896 128.578 541.572C128.578 540.507 128.934 539.62 129.645 538.91C130.476 538.2 131.424 537.845 132.492 537.845H155.795C157.1 537.845 158.167 538.082 158.997 538.555C159.828 539.028 160.598 539.915 161.31 541.217C163.682 547.369 170.145 550.445 180.7 550.445C186.748 550.445 191.433 549.084 194.753 546.363C198.193 543.524 199.912 539.679 199.912 534.828C199.912 525.363 193.745 520.631 181.412 520.631H161.666C160.48 520.631 159.412 520.217 158.464 519.389C157.634 518.442 157.218 517.377 157.218 516.194V506.256C157.218 503.654 158.167 501.642 160.065 500.223L189.239 475.555H139.785C138.599 475.555 137.532 475.141 136.583 474.313C135.753 473.366 135.338 472.301 135.338 471.118V454.437C135.338 453.135 135.753 452.07 136.583 451.242C137.532 450.414 138.599 450 139.785 450H221.615C222.92 450 223.987 450.414 224.817 451.242C225.766 452.07 226.24 453.135 226.24 454.437V469.521C226.24 471.769 225.291 473.721 223.394 475.377L196.355 500.4L197.6 500.755C208.51 502.175 217.108 505.842 223.394 511.758C229.798 517.555 233 525.896 233 536.78C233 544.707 230.747 551.628 226.24 557.544C221.734 563.459 215.507 568.014 207.562 571.208C199.616 574.403 190.662 576 180.7 576Z" fill="black"/>
<path d="M288.024 575C283.096 575 279.237 573.818 276.445 571.454C273.689 569.056 272.224 565.596 272.052 561.074C272.017 560.149 272 558.641 272 556.551C272 554.427 272.017 552.886 272.052 551.926C272.224 547.473 273.723 544.047 276.549 541.649C279.375 539.216 283.2 538 288.024 538C291.057 538 293.779 538.514 296.191 539.542C298.603 540.535 300.499 541.974 301.877 543.858C303.29 545.708 304.014 547.884 304.048 550.385V550.488C304.048 550.762 303.927 551.001 303.686 551.207C303.479 551.378 303.238 551.464 302.963 551.464H295.984C295.536 551.464 295.192 551.378 294.951 551.207C294.709 551.001 294.503 550.642 294.33 550.128C293.848 548.381 293.09 547.164 292.056 546.479C291.022 545.76 289.661 545.4 287.972 545.4C283.906 545.4 281.804 547.661 281.666 552.183C281.632 553.108 281.614 554.53 281.614 556.449C281.614 558.367 281.632 559.823 281.666 560.817C281.804 565.339 283.906 567.6 287.972 567.6C289.661 567.6 291.039 567.24 292.108 566.521C293.176 565.767 293.917 564.551 294.33 562.872C294.468 562.358 294.658 562.016 294.899 561.844C295.14 561.639 295.502 561.536 295.984 561.536H302.963C303.273 561.536 303.531 561.639 303.738 561.844C303.979 562.05 304.083 562.307 304.048 562.615C304.014 565.116 303.29 567.309 301.877 569.193C300.499 571.043 298.603 572.482 296.191 573.51C293.779 574.503 291.057 575 288.024 575Z" fill="black"/>
<path d="M324.267 575C319.408 575 315.583 573.818 312.791 571.454C310 569.09 308.518 565.613 308.346 561.022C308.312 560.029 308.294 558.556 308.294 556.603C308.294 554.616 308.312 553.125 308.346 552.132C308.518 547.61 310.017 544.132 312.843 541.7C315.703 539.233 319.511 538 324.267 538C329.022 538 332.83 539.233 335.69 541.7C338.551 544.132 340.05 547.61 340.187 552.132C340.256 554.119 340.291 555.609 340.291 556.603C340.291 557.562 340.256 559.035 340.187 561.022C340.015 565.613 338.533 569.09 335.742 571.454C332.951 573.818 329.126 575 324.267 575ZM324.267 567.6C326.162 567.6 327.661 567.035 328.764 565.904C329.901 564.774 330.504 563.044 330.573 560.714C330.642 558.727 330.676 557.322 330.676 556.5C330.676 555.609 330.642 554.205 330.573 552.286C330.504 549.956 329.901 548.226 328.764 547.096C327.627 545.965 326.128 545.4 324.267 545.4C322.406 545.4 320.907 545.965 319.77 547.096C318.667 548.226 318.064 549.956 317.96 552.286C317.926 553.245 317.909 554.65 317.909 556.5C317.909 558.316 317.926 559.72 317.96 560.714C318.064 563.044 318.667 564.774 319.77 565.904C320.872 567.035 322.371 567.6 324.267 567.6Z" fill="black"/>
<path d="M351.668 574.486C351.082 574.486 350.617 574.332 350.272 574.024C349.928 573.681 349.721 573.27 349.652 572.79L344.018 539.953C343.983 539.85 343.966 539.73 343.966 539.593C343.966 539.319 344.069 539.079 344.276 538.874C344.517 538.634 344.776 538.514 345.052 538.514H351.461C352.426 538.514 352.96 538.891 353.064 539.644L356.423 559.686L360.145 547.867C360.524 546.942 361.093 546.479 361.851 546.479H365.573C366.434 546.479 367.003 546.942 367.278 547.867L371 559.686L374.36 539.644C374.463 538.891 374.998 538.514 375.962 538.514H382.372C382.682 538.514 382.941 538.634 383.147 538.874C383.389 539.079 383.509 539.319 383.509 539.593L383.458 539.953L377.823 572.79C377.754 573.27 377.53 573.681 377.151 574.024C376.807 574.332 376.359 574.486 375.807 574.486H370.897C370.345 574.486 369.915 574.349 369.605 574.075C369.294 573.801 369.07 573.493 368.933 573.15L363.712 558.453L358.491 573.15C358.181 574.041 357.543 574.486 356.579 574.486H351.668Z" fill="black"/>
<path d="M403.216 575C398.357 575 394.532 573.818 391.741 571.454C388.949 569.09 387.467 565.613 387.295 561.022C387.261 560.029 387.243 558.556 387.243 556.603C387.243 554.616 387.261 553.125 387.295 552.132C387.467 547.61 388.966 544.132 391.792 541.7C394.652 539.233 398.46 538 403.216 538C407.971 538 411.779 539.233 414.639 541.7C417.5 544.132 418.999 547.61 419.136 552.132C419.205 554.119 419.24 555.609 419.24 556.603C419.24 557.562 419.205 559.035 419.136 561.022C418.964 565.613 417.482 569.09 414.691 571.454C411.9 573.818 408.075 575 403.216 575ZM403.216 567.6C405.111 567.6 406.61 567.035 407.713 565.904C408.85 564.774 409.453 563.044 409.522 560.714C409.591 558.727 409.625 557.322 409.625 556.5C409.625 555.609 409.591 554.205 409.522 552.286C409.453 549.956 408.85 548.226 407.713 547.096C406.576 545.965 405.077 545.4 403.216 545.4C401.355 545.4 399.856 545.965 398.719 547.096C397.616 548.226 397.013 549.956 396.91 552.286C396.875 553.245 396.858 554.65 396.858 556.5C396.858 558.316 396.875 559.72 396.91 560.714C397.013 563.044 397.616 564.774 398.719 565.904C399.821 567.035 401.321 567.6 403.216 567.6Z" fill="black"/>
<path d="M426.524 574.486C426.179 574.486 425.869 574.366 425.593 574.126C425.352 573.852 425.232 573.544 425.232 573.201V539.799C425.232 539.422 425.352 539.113 425.593 538.874C425.869 538.634 426.179 538.514 426.524 538.514H440.584C445.098 538.514 448.613 539.542 451.128 541.597C453.679 543.619 454.954 546.496 454.954 550.231C454.954 552.629 454.385 554.667 453.248 556.346C452.111 558.025 450.543 559.309 448.544 560.2L455.626 572.842C455.729 573.047 455.781 573.236 455.781 573.407C455.781 573.681 455.66 573.938 455.419 574.178C455.212 574.383 454.971 574.486 454.695 574.486H447.82C446.821 574.486 446.114 574.024 445.701 573.099L439.808 561.793H434.536V573.201C434.536 573.578 434.398 573.887 434.122 574.126C433.881 574.366 433.571 574.486 433.192 574.486H426.524ZM440.48 554.496C442.065 554.496 443.272 554.119 444.099 553.365C444.926 552.577 445.339 551.498 445.339 550.128C445.339 548.757 444.926 547.678 444.099 546.89C443.306 546.068 442.1 545.657 440.48 545.657H434.536V554.496H440.48Z" fill="black"/>
<path d="M462.263 574.486C461.918 574.486 461.608 574.366 461.332 574.126C461.091 573.852 460.971 573.544 460.971 573.201V539.799C460.971 539.422 461.091 539.113 461.332 538.874C461.608 538.634 461.918 538.514 462.263 538.514H468.776C469.155 538.514 469.465 538.634 469.706 538.874C469.948 539.113 470.068 539.422 470.068 539.799V551.207L479.631 539.49C480.044 538.839 480.716 538.514 481.647 538.514H489.09C489.4 538.514 489.659 538.634 489.866 538.874C490.072 539.079 490.176 539.319 490.176 539.593C490.176 539.833 490.124 540.038 490.021 540.21L477.615 555.729L490.951 572.79C491.089 572.927 491.158 573.133 491.158 573.407C491.158 573.681 491.054 573.938 490.848 574.178C490.641 574.383 490.383 574.486 490.072 574.486H482.37C481.543 574.486 480.854 574.144 480.303 573.458L470.068 560.765V573.201C470.068 573.578 469.948 573.887 469.706 574.126C469.465 574.366 469.155 574.486 468.776 574.486H462.263Z" fill="black"/>
<path d="M496.538 574.486C496.194 574.486 495.883 574.366 495.608 574.126C495.366 573.852 495.246 573.544 495.246 573.201V539.799C495.246 539.422 495.366 539.113 495.608 538.874C495.883 538.634 496.194 538.514 496.538 538.514H503.465C503.844 538.514 504.154 538.634 504.395 538.874C504.671 539.113 504.809 539.422 504.809 539.799V573.201C504.809 573.578 504.671 573.887 504.395 574.126C504.154 574.366 503.844 574.486 503.465 574.486H496.538Z" fill="black"/>
<path d="M513.297 574.486C512.953 574.486 512.642 574.366 512.367 574.126C512.125 573.852 512.005 573.544 512.005 573.201V539.799C512.005 539.422 512.125 539.113 512.367 538.874C512.642 538.634 512.953 538.514 513.297 538.514H518.776C519.638 538.514 520.224 538.839 520.534 539.49L533.146 559.224V539.799C533.146 539.422 533.267 539.113 533.508 538.874C533.784 538.634 534.094 538.514 534.439 538.514H540.641C541.02 538.514 541.331 538.634 541.572 538.874C541.813 539.113 541.934 539.422 541.934 539.799V573.15C541.934 573.527 541.813 573.852 541.572 574.126C541.331 574.366 541.02 574.486 540.641 574.486H535.111C534.352 574.486 533.784 574.161 533.405 573.51L520.792 554.496V573.201C520.792 573.544 520.672 573.852 520.43 574.126C520.189 574.366 519.879 574.486 519.5 574.486H513.297Z" fill="black"/>
<path d="M564.096 575C559.134 575 555.257 573.801 552.466 571.403C549.674 568.97 548.193 565.527 548.02 561.074C547.986 560.08 547.969 558.504 547.969 556.346C547.969 554.188 547.986 552.612 548.02 551.618C548.193 547.267 549.692 543.91 552.517 541.546C555.377 539.182 559.237 538 564.096 538C567.37 538 570.213 538.531 572.625 539.593C575.072 540.655 576.932 542.008 578.207 543.653C579.517 545.297 580.206 546.993 580.275 548.74C580.275 549.049 580.154 549.306 579.913 549.511C579.706 549.717 579.448 549.819 579.138 549.819H571.591C571.246 549.819 570.971 549.768 570.764 549.665C570.557 549.562 570.385 549.374 570.247 549.1C569.799 548.106 569.093 547.25 568.128 546.531C567.163 545.777 565.819 545.4 564.096 545.4C559.995 545.4 557.841 547.558 557.635 551.875C557.6 552.834 557.583 554.325 557.583 556.346C557.583 558.333 557.6 559.823 557.635 560.817C557.841 565.339 560.047 567.6 564.251 567.6C566.284 567.6 567.904 567.086 569.11 566.058C570.35 564.996 570.971 563.386 570.971 561.228V560.251H566.112C565.733 560.251 565.423 560.131 565.181 559.892C564.94 559.618 564.82 559.292 564.82 558.915V555.112C564.82 554.736 564.94 554.427 565.181 554.187C565.423 553.913 565.733 553.776 566.112 553.776H579.138C579.517 553.776 579.827 553.913 580.068 554.187C580.31 554.427 580.43 554.736 580.43 555.112V560.971C580.43 563.883 579.758 566.401 578.414 568.525C577.07 570.615 575.158 572.225 572.677 573.356C570.23 574.452 567.37 575 564.096 575Z" fill="black"/>
<path d="M609.254 575C605.187 575 601.965 574.058 599.587 572.174C597.21 570.289 596.021 567.72 596.021 564.465C596.021 562.375 596.624 560.543 597.83 558.967C599.036 557.391 600.759 555.969 602.999 554.701C601.69 553.297 600.742 551.995 600.156 550.796C599.605 549.563 599.329 548.312 599.329 547.044C599.329 545.4 599.76 543.893 600.621 542.522C601.483 541.152 602.758 540.056 604.446 539.233C606.135 538.411 608.168 538 610.546 538C612.751 538 614.664 538.411 616.284 539.233C617.938 540.021 619.178 541.1 620.005 542.471C620.867 543.807 621.298 545.28 621.298 546.89C621.298 548.877 620.694 550.59 619.488 552.029C618.282 553.434 616.49 554.821 614.113 556.192L620.264 562.307C620.815 561.416 621.28 560.56 621.659 559.737C622.073 558.881 622.486 557.768 622.9 556.397C623.038 555.918 623.4 555.678 623.985 555.678H629.206C629.482 555.678 629.723 555.781 629.93 555.986C630.137 556.157 630.24 556.38 630.24 556.654C630.205 557.853 629.637 559.481 628.534 561.536C627.466 563.592 626.277 565.407 624.968 566.983L630.757 572.79C630.998 573.099 631.119 573.356 631.119 573.561C631.119 573.835 631.015 574.058 630.809 574.229C630.636 574.4 630.412 574.486 630.137 574.486H623.107C622.555 574.486 622.107 574.315 621.763 573.972L619.437 571.762C616.783 573.921 613.389 575 609.254 575ZM609.719 551.464C611.097 550.779 612.131 550.111 612.82 549.46C613.544 548.809 613.906 548.038 613.906 547.147C613.906 546.222 613.578 545.486 612.924 544.937C612.303 544.355 611.511 544.064 610.546 544.064C609.65 544.064 608.857 544.355 608.168 544.937C607.513 545.52 607.186 546.274 607.186 547.199C607.186 547.815 607.376 548.466 607.755 549.151C608.168 549.802 608.823 550.573 609.719 551.464ZM609.254 568.474C611.39 568.474 613.165 567.84 614.578 566.572L607.703 559.737C605.429 560.937 604.291 562.393 604.291 564.106C604.291 565.407 604.791 566.469 605.79 567.292C606.79 568.08 607.944 568.474 609.254 568.474Z" fill="black"/>
<path d="M648.026 574.486C647.681 574.486 647.371 574.366 647.095 574.126C646.854 573.852 646.733 573.544 646.733 573.201V539.799C646.733 539.422 646.854 539.113 647.095 538.874C647.371 538.634 647.681 538.514 648.026 538.514H653.608C654.435 538.514 655.038 538.891 655.417 539.644L664.515 555.832L673.612 539.644C673.991 538.891 674.594 538.514 675.421 538.514H680.952C681.331 538.514 681.642 538.634 681.883 538.874C682.158 539.113 682.296 539.422 682.296 539.799V573.201C682.296 573.578 682.158 573.887 681.883 574.126C681.642 574.366 681.331 574.486 680.952 574.486H674.801C674.422 574.486 674.095 574.366 673.819 574.126C673.578 573.887 673.457 573.578 673.457 573.201V553.931L667.668 564.671C667.22 565.459 666.617 565.853 665.859 565.853H663.171C662.723 565.853 662.361 565.75 662.085 565.544C661.81 565.339 661.568 565.048 661.362 564.671L655.521 553.931V573.201C655.521 573.544 655.4 573.852 655.159 574.126C654.918 574.366 654.607 574.486 654.228 574.486H648.026Z" fill="black"/>
<path d="M687.472 574.486C687.196 574.486 686.938 574.383 686.696 574.178C686.49 573.938 686.386 573.681 686.386 573.407C686.386 573.201 686.404 573.047 686.438 572.944L698.585 539.953C698.689 539.542 698.913 539.199 699.257 538.925C699.602 538.651 700.05 538.514 700.601 538.514H708.251C708.803 538.514 709.251 538.651 709.595 538.925C709.94 539.199 710.164 539.542 710.267 539.953L722.363 572.944L722.466 573.407C722.466 573.681 722.346 573.938 722.104 574.178C721.898 574.383 721.639 574.486 721.329 574.486H714.971C714.144 574.486 713.593 574.126 713.317 573.407L711.301 568.165H697.5L695.536 573.407C695.26 574.126 694.691 574.486 693.83 574.486H687.472ZM709.233 560.765L704.426 547.199L699.619 560.765H709.233Z" fill="black"/>
<path d="M727.833 574.486C727.488 574.486 727.178 574.366 726.902 574.126C726.661 573.852 726.54 573.544 726.54 573.201V539.799C726.54 539.422 726.661 539.113 726.902 538.874C727.178 538.634 727.488 538.514 727.833 538.514H734.346C734.725 538.514 735.035 538.634 735.276 538.874C735.517 539.113 735.638 539.422 735.638 539.799V551.207L745.201 539.49C745.614 538.839 746.286 538.514 747.217 538.514H754.66C754.97 538.514 755.229 538.634 755.436 538.874C755.642 539.079 755.746 539.319 755.746 539.593C755.746 539.833 755.694 540.038 755.591 540.21L743.185 555.729L756.521 572.79C756.659 572.927 756.728 573.133 756.728 573.407C756.728 573.681 756.624 573.938 756.418 574.178C756.211 574.383 755.952 574.486 755.642 574.486H747.94C747.113 574.486 746.424 574.144 745.873 573.458L735.638 560.765V573.201C735.638 573.578 735.517 573.887 735.276 574.126C735.035 574.366 734.725 574.486 734.346 574.486H727.833Z" fill="black"/>
<path d="M762.108 574.486C761.763 574.486 761.453 574.366 761.178 574.126C760.936 573.852 760.816 573.544 760.816 573.201V539.799C760.816 539.422 760.936 539.113 761.178 538.874C761.453 538.634 761.763 538.514 762.108 538.514H769.035C769.414 538.514 769.724 538.634 769.965 538.874C770.241 539.113 770.378 539.422 770.378 539.799V573.201C770.378 573.578 770.241 573.887 769.965 574.126C769.724 574.366 769.414 574.486 769.035 574.486H762.108Z" fill="black"/>
<path d="M778.867 574.486C778.522 574.486 778.212 574.366 777.937 574.126C777.695 573.852 777.575 573.544 777.575 573.201V539.799C777.575 539.422 777.695 539.113 777.937 538.874C778.212 538.634 778.522 538.514 778.867 538.514H784.346C785.208 538.514 785.794 538.839 786.104 539.49L798.716 559.224V539.799C798.716 539.422 798.837 539.113 799.078 538.874C799.354 538.634 799.664 538.514 800.008 538.514H806.211C806.59 538.514 806.9 538.634 807.142 538.874C807.383 539.113 807.504 539.422 807.504 539.799V573.15C807.504 573.527 807.383 573.852 807.142 574.126C806.9 574.366 806.59 574.486 806.211 574.486H800.68C799.922 574.486 799.354 574.161 798.975 573.51L786.362 554.496V573.201C786.362 573.544 786.242 573.852 786 574.126C785.759 574.366 785.449 574.486 785.07 574.486H778.867Z" fill="black"/>
<path d="M829.666 575C824.704 575 820.827 573.801 818.035 571.403C815.244 568.97 813.762 565.527 813.59 561.074C813.556 560.08 813.538 558.504 813.538 556.346C813.538 554.188 813.556 552.612 813.59 551.618C813.762 547.267 815.261 543.91 818.087 541.546C820.947 539.182 824.807 538 829.666 538C832.94 538 835.783 538.531 838.195 539.593C840.641 540.655 842.502 542.008 843.777 543.653C845.087 545.297 845.776 546.993 845.845 548.74C845.845 549.049 845.724 549.306 845.483 549.511C845.276 549.717 845.018 549.819 844.708 549.819H837.161C836.816 549.819 836.541 549.768 836.334 549.665C836.127 549.562 835.955 549.374 835.817 549.1C835.369 548.106 834.663 547.25 833.698 546.531C832.733 545.777 831.389 545.4 829.666 545.4C825.565 545.4 823.411 547.558 823.205 551.875C823.17 552.834 823.153 554.325 823.153 556.346C823.153 558.333 823.17 559.823 823.205 560.817C823.411 565.339 825.617 567.6 829.821 567.6C831.854 567.6 833.474 567.086 834.68 566.058C835.92 564.996 836.541 563.386 836.541 561.228V560.251H831.682C831.303 560.251 830.993 560.131 830.751 559.892C830.51 559.618 830.389 559.292 830.389 558.915V555.112C830.389 554.736 830.51 554.427 830.751 554.187C830.993 553.913 831.303 553.776 831.682 553.776H844.708C845.087 553.776 845.397 553.913 845.638 554.187C845.879 554.427 846 554.736 846 555.112V560.971C846 563.883 845.328 566.401 843.984 568.525C842.64 570.615 840.728 572.225 838.246 573.356C835.8 574.452 832.94 575 829.666 575Z" fill="black"/>
</svg>
