<?xml version="1.0" encoding="UTF-8" standalone="no"?>
<!DOCTYPE svg PUBLIC "-//W3C//DTD SVG 1.1//EN" "http://www.w3.org/Graphics/SVG/1.1/DTD/svg11.dtd">
<svg width="100%" height="100%" viewBox="0 0 256 256" version="1.1" xmlns="http://www.w3.org/2000/svg" xmlns:xlink="http://www.w3.org/1999/xlink" xml:space="preserve" xmlns:serif="http://www.serif.com/" style="fill-rule:evenodd;clip-rule:evenodd;stroke-linejoin:round;stroke-miterlimit:1.41421;">
    <g id="_2034175550960" transform="matrix(0.296174,0,0,0.296174,-37.3781,-25.2039)">
        <path d="M963.491,641.224C904.452,628.48 847.573,609.544 786.734,597.016C618.4,562.457 412.555,563.609 248.685,618.4C207.429,632.152 180.286,648.639 142.054,665.271C231.909,589.6 405.355,558.065 517.961,552.089C649.287,545.105 845.773,583.768 963.491,641.224Z" style="fill:rgb(38,37,36);"/>
    </g>
    <g id="_2034175549936" transform="matrix(0.296174,0,0,0.296174,-37.3781,-25.2039)">
        <path d="M183.31,589.744C168.19,568 161.566,551.081 156.454,525.449C145.294,469.434 160.486,435.306 220.461,424.29C280.868,413.203 290.804,472.89 295.052,518.681C295.988,529.265 296.06,530.057 292.892,539.705C291.092,532.361 290.804,527.465 288.932,519.689C272.444,452.874 262.653,416.155 187.918,454.458C147.454,475.266 174.454,558.353 183.31,589.744Z" style="fill:rgb(38,37,36);"/>
    </g>
    <g id="_2034175547856" transform="matrix(0.296174,0,0,0.296174,-37.3781,-25.2039)">
        <path d="M795.085,561.737C791.774,534.665 795.013,513.065 808.189,488.658C842.533,425.154 902.868,439.41 937.356,496.433C950.099,517.457 925.908,570.232 916.62,590.968L916.548,579.88C917.988,563.753 935.124,517.025 926.052,504.425C912.372,485.274 886.236,461.154 860.389,464.178C817.189,469.218 803.365,527.897 795.085,561.737Z" style="fill:rgb(38,37,36);"/>
    </g>
    <g id="_2034175547568" transform="matrix(0.296174,0,0,0.296174,-37.3781,-25.2039)">
        <path d="M486.498,513.497C483.546,426.594 570.088,334.508 625.816,458.418C633.16,474.834 645.831,507.953 643.455,525.881L640.792,537.833L638.416,525.809C632.8,492.545 599.608,422.562 563.753,415.939C520.409,407.947 498.665,485.49 486.498,513.497Z" style="fill:rgb(38,37,36);"/>
    </g>
    <g id="_2034175549456" transform="matrix(0.296174,0,0,0.296174,-37.3781,-25.2039)">
        <path d="M606.952,293.9C577.288,292.244 502.913,280.58 512.777,333.5C515.657,349.123 531.137,375.187 548.993,376.987C573.112,379.435 645.327,374.971 640.72,335.732C636.976,303.692 582.472,278.348 556.049,266.108L556.193,266.18C544.673,261.861 550.361,264.309 539.273,258.693C578.944,262.221 661.671,298.076 654.615,345.955C647.991,390.235 581.68,398.659 547.121,393.619C521.777,389.947 502.553,359.059 499.385,335.66C491.178,273.668 565.553,277.844 606.952,293.9Z" style="fill:rgb(38,37,36);"/>
    </g>
    <g transform="matrix(0.265695,0,0,0.265695,-3.02787,204.32)">
        <path d="M34.814,0C40.574,0 45.917,-1.064 50.843,-3.193C55.768,-5.322 60.026,-8.39 63.616,-12.398C67.039,-16.238 69.669,-20.579 71.506,-25.421C73.342,-30.264 74.261,-35.398 74.261,-40.825C74.261,-46.251 73.342,-51.385 71.506,-56.228C69.669,-61.07 67.039,-65.369 63.616,-69.126C60.026,-73.05 55.768,-76.076 50.843,-78.205C45.917,-80.334 40.574,-81.399 34.814,-81.399L11.396,-81.399L11.396,0L34.814,0ZM17.031,-75.638L34.814,-75.638C44.832,-75.638 53.055,-72.173 59.484,-65.244C62.406,-62.072 64.639,-58.377 66.183,-54.161C67.728,-49.945 68.5,-45.5 68.5,-40.825C68.5,-36.066 67.728,-31.578 66.183,-27.362C64.639,-23.146 62.406,-19.452 59.484,-16.28C53.139,-9.183 44.915,-5.635 34.814,-5.635L17.031,-5.635L17.031,-75.638Z" style="fill:rgb(38,37,36);fill-rule:nonzero;"/>
    </g>
    <g transform="matrix(0.265695,0,0,0.265695,-3.02787,204.32)">
        <rect x="94.673" y="-81.399" width="5.635" height="81.399" style="fill:rgb(38,37,36);"/>
    </g>
    <g transform="matrix(0.265695,0,0,0.265695,-3.02787,204.32)">
        <path d="M168.558,-39.447C172.398,-37.276 175.383,-34.626 177.512,-31.495C179.641,-28.364 180.705,-25.004 180.705,-21.414C180.705,-18.325 179.954,-15.382 178.451,-12.585C176.948,-9.789 174.777,-7.347 171.939,-5.26C166.095,-1.085 159.291,1.002 151.527,1.002C147.686,1.002 144.013,0.459 140.507,-0.626C137,-1.711 133.869,-3.256 131.114,-5.26C126.356,-8.766 123.475,-13.066 122.474,-18.158L127.858,-21.164C128.109,-16.572 130.363,-12.815 134.621,-9.893C136.791,-8.223 139.338,-6.95 142.26,-6.074C145.182,-5.197 148.271,-4.759 151.527,-4.759C158.206,-4.759 163.841,-6.47 168.433,-9.893C172.857,-13.149 175.07,-16.989 175.07,-21.414C175.07,-24.002 174.256,-26.423 172.628,-28.677C171,-30.931 168.725,-32.852 165.803,-34.438C163.048,-35.857 158.122,-36.984 151.026,-37.819C150.441,-37.903 148.333,-38.236 144.702,-38.821C141.07,-39.405 137.96,-40.324 135.372,-41.576C131.281,-43.58 128.067,-46.23 125.73,-49.528C123.392,-52.826 122.223,-56.395 122.223,-60.235C122.223,-63.324 122.995,-66.225 124.54,-68.938C126.084,-71.652 128.276,-74.052 131.114,-76.139C133.869,-78.143 137,-79.687 140.507,-80.772C144.013,-81.858 147.686,-82.4 151.527,-82.4C159.291,-82.4 166.095,-80.313 171.939,-76.139C176.781,-72.466 179.62,-68.208 180.455,-63.366L175.07,-60.36C174.986,-62.447 174.381,-64.451 173.254,-66.371C172.127,-68.291 170.52,-70.045 168.433,-71.631C166.178,-73.301 163.59,-74.574 160.668,-75.45C157.746,-76.327 154.699,-76.765 151.527,-76.765C148.354,-76.765 145.286,-76.327 142.322,-75.45C139.359,-74.574 136.791,-73.301 134.621,-71.631C132.45,-70.045 130.78,-68.27 129.612,-66.309C128.443,-64.347 127.858,-62.322 127.858,-60.235C127.858,-57.647 128.819,-55.08 130.739,-52.533C132.659,-49.987 135.038,-48.004 137.877,-46.585C139.63,-45.75 141.571,-45.145 143.7,-44.769C145.829,-44.394 148.563,-43.997 151.902,-43.58C152.487,-43.496 153.948,-43.287 156.285,-42.953C158.623,-42.619 160.877,-42.16 163.048,-41.576C165.218,-40.992 167.055,-40.282 168.558,-39.447Z" style="fill:rgb(38,37,36);fill-rule:nonzero;"/>
    </g>
    <g transform="matrix(0.265695,0,0,0.265695,-3.02787,204.32)">
        <path d="M263.732,-81.399L263.732,-75.638L231.548,-75.638L231.548,0L225.787,0L225.787,-75.638L193.478,-75.638L193.478,-81.399L263.732,-81.399Z" style="fill:rgb(38,37,36);fill-rule:nonzero;"/>
    </g>
    <g transform="matrix(0.265695,0,0,0.265695,-3.02787,204.32)">
        <path d="M329.978,0L296.166,-41.075L306.184,-41.075C312.362,-41.075 317.371,-41.868 321.212,-43.454C324.05,-44.79 326.513,-46.815 328.6,-49.528C330.687,-52.241 331.731,-55.226 331.731,-58.482C331.731,-61.404 330.854,-64.18 329.101,-66.809C327.348,-69.439 324.843,-71.589 321.587,-73.259C318.331,-74.928 314.574,-75.763 310.317,-75.763L287.525,-75.763L287.525,0L281.89,0L281.89,-81.399L310.317,-81.399C314.157,-81.399 317.747,-80.793 321.086,-79.583C324.426,-78.372 327.348,-76.64 329.852,-74.386C332.273,-72.215 334.131,-69.752 335.425,-66.997C336.719,-64.242 337.366,-61.404 337.366,-58.482C337.366,-53.89 335.989,-49.778 333.233,-46.147C330.478,-42.515 327.223,-39.906 323.466,-38.32C320.878,-37.151 318.352,-36.421 315.889,-36.128C313.426,-35.836 310.818,-35.69 308.063,-35.69L337.491,0L329.978,0Z" style="fill:rgb(38,37,36);fill-rule:nonzero;"/>
    </g>
    <g transform="matrix(0.265695,0,0,0.265695,-3.02787,204.32)">
        <rect x="360.784" y="-81.399" width="5.635" height="81.399" style="fill:rgb(38,37,36);"/>
    </g>
    <g transform="matrix(0.265695,0,0,0.265695,-3.02787,204.32)">
        <path d="M428.032,0.877C434.293,0.877 440.221,-0.48 445.814,-3.193C451.408,-5.907 456.166,-9.726 460.09,-14.652L455.582,-18.158C452.159,-13.984 448.047,-10.728 443.247,-8.39C438.446,-6.053 433.375,-4.884 428.032,-4.884C421.603,-4.884 415.676,-6.491 410.249,-9.705C404.823,-12.919 400.502,-17.282 397.288,-22.792C394.074,-28.302 392.467,-34.313 392.467,-40.825C392.467,-47.336 394.074,-53.347 397.288,-58.857C400.502,-64.368 404.823,-68.73 410.249,-71.944C415.676,-75.158 421.603,-76.765 428.032,-76.765C433.041,-76.765 437.82,-75.722 442.37,-73.634C446.92,-71.547 450.865,-68.625 454.204,-64.868L458.587,-68.751C454.58,-73.092 449.926,-76.452 444.624,-78.831C439.323,-81.211 433.792,-82.4 428.032,-82.4C420.601,-82.4 413.714,-80.522 407.369,-76.765C401.024,-73.008 396.015,-67.957 392.341,-61.613C388.668,-55.268 386.831,-48.338 386.831,-40.825C386.831,-33.311 388.668,-26.361 392.341,-19.974C396.015,-13.587 401.024,-8.516 407.369,-4.759C413.714,-1.002 420.601,0.877 428.032,0.877Z" style="fill:rgb(38,37,36);fill-rule:nonzero;"/>
    </g>
    <g transform="matrix(0.265695,0,0,0.265695,-3.02787,204.32)">
        <path d="M543.367,-81.399L543.367,-75.638L511.183,-75.638L511.183,0L505.423,0L505.423,-75.638L473.114,-75.638L473.114,-81.399L543.367,-81.399Z" style="fill:rgb(38,37,36);fill-rule:nonzero;"/>
    </g>
    <g transform="matrix(0.265695,0,0,0.265695,-3.02787,204.32)">
        <path d="M668.721,-81.399L668.721,-75.638L636.537,-75.638L636.537,0L630.777,0L630.777,-75.638L598.468,-75.638L598.468,-81.399L668.721,-81.399Z" style="fill:rgb(38,37,36);fill-rule:nonzero;"/>
    </g>
    <g transform="matrix(0.265695,0,0,0.265695,-3.02787,204.32)">
        <path d="M740.853,0L746.488,0L746.488,-40.825L746.488,-81.399L740.853,-81.399L740.853,-43.58L692.765,-43.58L692.765,-81.399L687.004,-81.399L687.004,0L692.765,0L692.765,-37.819L740.853,-37.819L740.853,0Z" style="fill:rgb(38,37,36);fill-rule:nonzero;"/>
    </g>
    <g transform="matrix(0.265695,0,0,0.265695,-3.02787,204.32)">
        <path d="M818.745,0L784.933,-41.075L794.952,-41.075C801.13,-41.075 806.139,-41.868 809.979,-43.454C812.818,-44.79 815.28,-46.815 817.367,-49.528C819.455,-52.241 820.498,-55.226 820.498,-58.482C820.498,-61.404 819.622,-64.18 817.868,-66.809C816.115,-69.439 813.611,-71.589 810.355,-73.259C807.099,-74.928 803.342,-75.763 799.084,-75.763L776.292,-75.763L776.292,0L770.657,0L770.657,-81.399L799.084,-81.399C802.924,-81.399 806.514,-80.793 809.854,-79.583C813.193,-78.372 816.115,-76.64 818.62,-74.386C821.041,-72.215 822.898,-69.752 824.192,-66.997C825.486,-64.242 826.134,-61.404 826.134,-58.482C826.134,-53.89 824.756,-49.778 822.001,-46.147C819.246,-42.515 815.99,-39.906 812.233,-38.32C809.645,-37.151 807.12,-36.421 804.657,-36.128C802.194,-35.836 799.585,-35.69 796.83,-35.69L826.259,0L818.745,0Z" style="fill:rgb(38,37,36);fill-rule:nonzero;"/>
    </g>
    <g transform="matrix(0.265695,0,0,0.265695,-3.02787,204.32)">
        <path d="M900.77,0L900.77,-5.886L853.684,-5.886L853.684,-37.819L890.376,-37.819L890.376,-43.58L853.684,-43.58L853.684,-75.638L900.77,-75.638L900.77,-81.399L848.049,-81.399L848.049,0L900.77,0Z" style="fill:rgb(38,37,36);fill-rule:nonzero;"/>
    </g>
    <g transform="matrix(0.265695,0,0,0.265695,-3.02787,204.32)">
        <path d="M974.905,0L974.905,-5.886L927.819,-5.886L927.819,-37.819L964.511,-37.819L964.511,-43.58L927.819,-43.58L927.819,-75.638L974.905,-75.638L974.905,-81.399L922.184,-81.399L922.184,0L974.905,0Z" style="fill:rgb(38,37,36);fill-rule:nonzero;"/>
    </g>
    <g id="_2034175547024" transform="matrix(0.296174,0,0,0.296174,-37.3781,-25.2039)">
        <path d="M240.333,345.163C212.325,352.219 172.078,364.531 161.566,395.635C152.854,421.338 223.773,404.563 232.341,383.971C236.589,373.675 227.229,369.283 220.029,364.099C227.877,363.739 234.357,364.891 238.965,372.235C259.269,404.419 173.086,439.77 149.758,417.738C127.078,396.427 165.814,362.659 184.174,353.299C205.413,342.571 217.653,341.275 240.333,345.163Z" style="fill:rgb(38,37,36);"/>
    </g>
    <g id="_2034175545840" transform="matrix(0.296174,0,0,0.296174,-37.3781,-25.2039)">
        <path d="M890.268,380.155C876.156,394.915 864.277,406.939 888.756,422.634C908.484,435.306 949.019,445.602 942.252,407.299C933.612,358.555 895.308,374.827 854.629,366.043C877.812,360.499 909.204,355.963 931.74,365.611C957.155,376.555 975.299,430.842 943.98,445.89C899.7,467.274 827.413,397.075 890.268,380.155Z" style="fill:rgb(38,37,36);"/>
    </g>
</svg>
