<?xml version="1.0" encoding="UTF-8" standalone="no"?>
<!DOCTYPE svg PUBLIC "-//W3C//DTD SVG 1.1//EN" "http://www.w3.org/Graphics/SVG/1.1/DTD/svg11.dtd">
<svg width="100%" height="100%" viewBox="0 0 1024 1024" version="1.1" xmlns="http://www.w3.org/2000/svg" xmlns:xlink="http://www.w3.org/1999/xlink" xml:space="preserve" xmlns:serif="http://www.serif.com/" style="fill-rule:evenodd;clip-rule:evenodd;stroke-linejoin:round;stroke-miterlimit:2;">
    <g transform="matrix(2.95725,0,0,2.95725,77.4533,281.141)">
        <path d="M292,37.12C292,37.12 286,-4.41 239.71,0.39C193.42,5.19 178.48,14.39 127.84,13.16C77.2,11.93 -14.2,15 1.87,94.25C16.45,166.25 106.94,164.81 174.38,142.87C238.84,121.9 306.07,91.6 292,37.12Z" style="fill:rgb(248,153,33);fill-rule:nonzero;"/>
    </g>
    <g transform="matrix(2.95725,0,0,2.95725,77.4533,281.141)">
        <path d="M87.92,43.48C86.766,39.451 86.24,35.269 86.36,31.08C86.382,30.653 86.524,30.24 86.77,29.89C87.04,29.46 87.31,29.25 87.58,29.25C93.91,27.097 100.858,27.658 106.76,30.8C107.39,31.12 107.71,31.53 107.71,32.02C107.71,32.88 106.89,33.81 105.27,34.8C104.592,35.121 103.85,35.285 103.1,35.28C101.498,35.09 99.939,34.63 98.49,33.92C97.025,33.177 95.39,32.832 93.75,32.92C93.607,33.914 93.536,34.916 93.54,35.92C93.599,38.367 93.918,40.8 94.49,43.18C95.083,45.527 95.673,47.897 96.26,50.29C97.347,50.314 98.434,50.247 99.51,50.09C101.27,49.91 102.49,49.82 103.17,49.82C105.92,49.82 107.26,50.77 107.17,52.66C107.117,53.88 105.737,54.58 103.03,54.76C100.09,54.95 98.47,55.36 98.15,56.02C97.84,56.663 97.68,57.367 97.68,58.08C97.807,59.68 98.256,61.238 99,62.66C99.74,64.171 100.375,65.732 100.9,67.33C101.034,67.678 101.102,68.047 101.1,68.42C101.106,69.261 100.688,70.051 99.99,70.52C99.272,71.05 98.402,71.334 97.51,71.33C96.827,71.361 96.156,71.144 95.62,70.72C94.347,69.46 93.373,67.143 92.7,63.77C92.02,60.41 91.14,58.09 90.06,56.83C89.971,56.65 89.78,56.543 89.58,56.56C89.206,56.604 88.836,56.671 88.47,56.76C87.97,56.888 87.449,56.912 86.94,56.83C85.68,56.51 85.04,55.88 85.04,54.93C85.043,54.562 85.178,54.207 85.42,53.93C86.033,53.338 86.726,52.837 87.48,52.44C88.43,51.85 88.96,51.33 89.08,50.88C89.194,50.415 89.251,49.938 89.25,49.46C89.213,48.444 89.051,47.437 88.77,46.46C88.48,45.47 88.19,44.47 87.92,43.48Z" style="fill:white;fill-rule:nonzero;"/>
    </g>
    <g transform="matrix(2.95725,0,0,2.95725,77.4533,281.141)">
        <path d="M110.55,54.18C110.55,50.62 110.96,48.04 111.77,46.46C112.38,45.208 113.701,44.452 115.09,44.56C115.778,44.558 116.459,44.697 117.09,44.97C118.35,45.56 118.99,46.32 118.99,47.27C118.989,47.629 118.841,47.973 118.58,48.22C117.716,49.526 117.266,51.064 117.29,52.63C117.27,54.066 117.089,55.495 116.75,56.89C116.512,57.588 116.397,58.322 116.41,59.06C116.442,59.96 116.546,60.856 116.72,61.74C116.89,62.644 116.99,63.56 117.02,64.48C117.023,65.091 116.99,65.703 116.92,66.31C116.85,66.9 116.62,67.2 116.21,67.2C115.351,67.448 114.464,67.582 113.57,67.6C112.12,67.6 111.22,67.06 110.86,65.98C110.462,64.429 110.277,62.831 110.31,61.23C110.31,60.46 110.31,59.29 110.45,57.71C110.59,56.13 110.55,55 110.55,54.18ZM112.25,38.87C111.903,38.427 111.732,37.871 111.77,37.31C111.77,35.59 112.25,34.46 113.2,33.92C114.113,33.394 115.147,33.115 116.2,33.11C117.058,33.099 117.898,33.358 118.6,33.85C119.268,34.334 119.645,35.126 119.6,35.95C119.482,37.601 118.639,39.118 117.3,40.09C116.765,40.4 116.158,40.562 115.54,40.56C114.246,40.521 113.035,39.9 112.25,38.87Z" style="fill:white;fill-rule:nonzero;"/>
    </g>
    <g transform="matrix(2.95725,0,0,2.95725,77.4533,281.141)">
        <path d="M123.23,56.62C123.23,55.9 123.17,54.75 123.06,53.17C122.95,51.59 122.89,50.41 122.89,49.64C122.845,48.215 123.051,46.793 123.5,45.44C123.947,44.451 124.993,43.864 126.07,44C127.297,43.831 128.478,44.579 128.85,45.76C128.947,46.067 128.995,46.388 128.99,46.71C128.945,47.412 128.817,48.107 128.61,48.78C128.4,49.472 128.276,50.188 128.24,50.91C128.65,51.27 128.85,51.54 128.85,51.72C129.761,50.119 130.78,48.582 131.9,47.12C132.907,45.763 134.481,44.937 136.17,44.88C136.79,44.884 137.406,44.975 138,45.15C139.714,48.18 140.777,51.535 141.12,55C141.25,56.13 141.46,59.63 141.73,65.5C142.22,67.5 141.93,68.64 140.85,68.96C139.928,69.267 138.97,69.448 138,69.5C137,69.5 136.37,69.12 136.24,68.35C136.007,66.63 135.803,63.827 135.63,59.94C135.573,57.189 135.299,54.448 134.81,51.74C133.26,53.658 132.067,55.839 131.29,58.18C130.43,60.555 129.428,62.875 128.29,65.13C127.776,66.101 126.747,66.693 125.65,66.65C124.444,66.658 123.412,65.748 123.27,64.55C123.027,63.255 122.936,61.936 123,60.62C123.16,57.69 123.23,56.35 123.23,56.62Z" style="fill:white;fill-rule:nonzero;"/>
    </g>
    <g transform="matrix(2.95725,0,0,2.95725,77.4533,281.141)">
        <path d="M130.68,35.07C131.09,35.07 131.5,35.79 131.93,37.07C132.34,38.237 132.56,39.463 132.58,40.7C132.58,42.01 132.17,42.7 131.36,42.7C130.36,42.7 128.99,41.28 127.22,38.43C127.093,38.179 127.024,37.902 127.02,37.62C127.094,36.825 127.586,36.127 128.31,35.79C128.992,35.281 129.83,35.026 130.68,35.07Z" style="fill:white;fill-rule:nonzero;"/>
    </g>
    <g transform="matrix(2.95725,0,0,2.95725,77.4533,281.141)">
        <path d="M139.83,35C139.732,36.272 139.392,37.514 138.83,38.66C138.06,40.37 137.29,41.23 136.53,41.23C135.77,41.23 135.31,40.44 134.9,38.86C134.9,38.68 134.7,37.62 134.43,35.67C134.24,34.45 135.22,33.84 137.34,33.84C139,33.85 139.83,34.24 139.83,35Z" style="fill:white;fill-rule:nonzero;"/>
    </g>
    <g transform="matrix(2.95725,0,0,2.95725,77.4533,281.141)">
        <path d="M146.88,41C147.1,41.54 146.57,42.23 145.28,43.06C144.407,43.796 143.262,44.13 142.13,43.98C141.46,43.8 141.13,43.21 141.13,42.22C141.154,40.765 141.55,39.339 142.28,38.08C142.437,37.781 142.753,37.598 143.09,37.61C143.942,37.725 144.719,38.162 145.26,38.83C145.929,39.447 146.478,40.183 146.88,41Z" style="fill:white;fill-rule:nonzero;"/>
    </g>
    <g transform="matrix(2.95725,0,0,2.95725,77.4533,281.141)">
        <path d="M145.59,56.15C145.583,53.685 146.646,51.334 148.5,49.71C150.469,48.095 152.645,46.75 154.97,45.71C157.165,44.719 159.264,43.527 161.24,42.15C161.83,41.65 162.24,40.57 162.46,38.9C162.533,37.562 162.786,36.241 163.21,34.97C164.16,33.34 165.35,32.53 166.8,32.53C167.121,32.529 167.441,32.573 167.75,32.66C169.33,33.34 169.98,34.22 169.75,35.31C167.625,41.309 166.579,47.637 166.66,54C166.704,59.115 167.182,64.216 168.09,69.25C168.09,69.57 167.77,69.92 167.09,70.25C166.585,70.589 165.998,70.786 165.39,70.82C164.31,70.92 163.39,70.24 162.62,68.82C161.85,67.4 161.26,66.61 160.85,66.52C160.238,66.532 159.627,66.576 159.02,66.65C158.21,66.74 157.62,66.79 157.26,66.79C155.776,66.844 154.31,66.442 153.06,65.64C151.295,64.534 149.623,63.287 148.06,61.91C146.477,60.414 145.583,58.328 145.59,56.15ZM152.43,55.2C152.692,56.67 153.443,58.009 154.56,59C155.596,60.059 157.009,60.667 158.49,60.69C159.034,60.688 159.575,60.597 160.09,60.42L160.09,58.11C160.136,56.603 160.273,55.1 160.5,53.61C160.728,52.093 160.861,50.563 160.9,49.03C158.862,48.998 156.852,49.512 155.08,50.52C153.027,51.7 152.143,53.26 152.43,55.2Z" style="fill:white;fill-rule:nonzero;"/>
    </g>
    <g transform="matrix(2.95725,0,0,2.95725,77.4533,281.141)">
        <path d="M177.45,59.35L177.18,56.91C177.11,56.118 177.326,55.326 177.79,54.68C178.507,53.596 179.752,52.973 181.05,53.05C182.226,52.946 183.346,53.603 183.83,54.68C184.532,56.466 184.833,58.385 184.71,60.3C184.626,62.221 184.669,64.145 184.84,66.06C184.93,66.38 185.07,66.54 185.25,66.54C185.43,66.54 185.7,66.27 186.2,65.72C187.193,63.513 188.163,61.323 189.11,59.15C190.081,57.044 191.632,55.258 193.58,54C194.17,53.709 194.823,53.568 195.48,53.59C197.33,53.59 198.26,54.23 198.26,55.49C198.244,55.918 198.127,56.336 197.92,56.71L192.36,66.71C190.47,70.12 189.296,73.88 188.91,77.76C188.465,81.865 187.171,85.832 185.11,89.41C182.49,94.343 179.533,96.807 176.24,96.8C173.98,96.8 172.463,96.03 171.69,94.49C171.025,93.305 170.632,91.986 170.54,90.63C170.498,89.575 171.067,88.585 172,88.09C172.32,87.875 172.695,87.757 173.08,87.75C173.872,87.764 174.628,88.091 175.18,88.66C175.778,89.206 176.182,89.933 176.33,90.73C178.009,89.581 179.363,88.017 180.26,86.19C180.667,84.19 181.097,82.19 181.55,80.19C181.64,79.79 181.687,79.381 181.69,78.97C181.546,77.381 181.084,75.837 180.33,74.43C179.628,73.087 179.126,71.648 178.84,70.16C178.5,67.793 178.037,64.19 177.45,59.35Z" style="fill:white;fill-rule:nonzero;"/>
    </g>
    <g transform="matrix(2.95725,0,0,2.95725,77.4533,281.141)">
        <path d="M216.89,62.34C216.299,59.872 215.142,57.574 213.51,55.63C212.208,54.049 210.268,53.129 208.22,53.12C206.653,53.028 205.195,53.965 204.63,55.43C203.986,56.504 203.285,57.542 202.53,58.54C201.546,59.924 200.789,61.457 200.29,63.08C199.97,64.206 199.809,65.37 199.81,66.54C199.81,71.14 201.667,74.503 205.38,76.63C206.305,77.109 207.338,77.343 208.38,77.31C209.771,77.429 211.15,76.961 212.18,76.02C215.573,72.46 217.267,68.913 217.26,65.38C217.267,64.355 217.143,63.333 216.89,62.34ZM208.56,70.06C208.223,70.057 207.887,70.013 207.56,69.93C205.56,69.47 204.56,68.39 204.56,66.67C204.621,65.144 205.179,63.679 206.15,62.5C207.21,61.08 208.15,60.37 208.83,60.37C208.998,60.372 209.164,60.417 209.31,60.5C210.807,62.074 211.654,64.158 211.68,66.33C211.633,68.823 210.593,70.067 208.56,70.06Z" style="fill:white;fill-rule:nonzero;"/>
    </g>
    <g transform="matrix(2.95725,0,0,2.95725,77.4533,281.141)">
        <path d="M205.78,81.24C206.46,81.74 206.78,82.71 206.78,84.16C206.78,85.78 206.28,86.87 205.29,87.41C204.825,87.711 204.284,87.874 203.73,87.88C202.892,87.872 202.109,87.458 201.63,86.77C201.047,86.032 200.671,85.152 200.54,84.22C200.358,83.227 200.69,82.207 201.42,81.51C202.057,80.953 202.885,80.663 203.73,80.7C204.452,80.67 205.167,80.858 205.78,81.24Z" style="fill:white;fill-rule:nonzero;"/>
    </g>
    <g transform="matrix(2.95725,0,0,2.95725,77.4533,281.141)">
        <path d="M214.62,81.34C215.23,81.77 215.54,82.71 215.54,84.16C215.54,85.78 215.04,86.87 214.05,87.41C213.585,87.711 213.044,87.874 212.49,87.88C211.661,87.87 210.887,87.455 210.42,86.77C209.879,86.017 209.535,85.14 209.42,84.22C209.244,83.238 209.549,82.23 210.24,81.51C210.872,80.952 211.698,80.661 212.54,80.7C213.283,80.694 214.009,80.917 214.62,81.34Z" style="fill:white;fill-rule:nonzero;"/>
    </g>
    <g transform="matrix(2.95725,0,0,2.95725,77.4533,281.141)">
        <path d="M219.06,61.93C219.113,60.75 219.193,59.53 219.3,58.27C219.325,57.167 219.866,56.137 220.76,55.49C221.493,55.208 222.274,55.069 223.06,55.08C225.37,55.08 226.52,55.9 226.52,57.52L226.25,64.16C226.14,66.38 226.23,68.606 226.52,70.81L227.6,75.55C228.19,77.55 228.89,78.55 229.7,78.55C230.012,78.539 230.315,78.446 230.58,78.28C234.333,75.707 236.21,71.82 236.21,66.62C236.256,63.772 235.489,60.969 234,58.54C233.264,57.499 232.831,56.273 232.75,55C232.75,53.69 233.66,53 235.46,53C237.26,53 238.78,54 240.14,56C241.325,57.624 242.019,59.554 242.14,61.56C242.466,65.826 241.914,70.115 240.52,74.16C238.913,78.573 236.407,81.52 233,83C231.759,83.556 230.419,83.858 229.06,83.89C225.627,83.89 223.007,81.673 221.2,77.24C219.622,73.183 218.864,68.852 218.97,64.5C218.953,63.642 218.983,62.784 219.06,61.93Z" style="fill:white;fill-rule:nonzero;"/>
    </g>
    <g transform="matrix(2.95725,0,0,2.95725,77.4533,281.141)">
        <path d="M245.22,65.18C244.983,63.95 244.621,62.747 244.14,61.59C243.651,60.474 243.353,59.284 243.26,58.07C243.242,57.019 243.689,56.012 244.48,55.32C245.156,54.606 246.097,54.202 247.079,54.202C248.302,54.202 249.444,54.828 250.1,55.86C250.962,56.975 251.417,58.351 251.39,59.76L251.39,60.76C252.563,60.58 253.977,59.63 255.63,57.91C257.16,56.29 258.56,55.47 259.81,55.47C260.291,55.475 260.769,55.545 261.23,55.68C263.12,56.44 264.06,57.19 264.06,57.91C264.034,58.335 263.869,58.739 263.59,59.06C262.217,60.797 260.635,62.359 258.88,63.71C257.038,65.098 255.396,66.734 254,68.57C253.615,69.325 253.416,70.162 253.42,71.01C253.431,71.814 253.271,72.612 252.95,73.35C252.694,73.815 252.567,74.34 252.58,74.87C252.614,75.913 252.994,76.916 253.66,77.72C254.272,78.514 254.584,79.499 254.54,80.5C254.614,81.994 254.046,83.45 252.98,84.5C252.355,85.551 251.201,86.177 249.98,86.13C248.922,86.163 247.912,85.682 247.27,84.84C246.51,84.35 246.17,83.33 246.27,81.84C246.357,76.268 246.006,70.697 245.22,65.18Z" style="fill:white;fill-rule:nonzero;"/>
    </g>
    <g transform="matrix(2.95725,0,0,2.95725,77.4533,281.141)">
        <path d="M40.35,85.24C40.57,83.7 40.903,81.397 41.35,78.33C41.53,76.517 42.703,75.613 44.87,75.62C46.169,75.616 47.441,75.992 48.53,76.7C49.09,77.329 49.231,78.23 48.89,79C47.017,83.36 46.116,88.076 46.25,92.82C50.543,92.413 52.597,92.21 52.41,92.21C54.76,92.21 55.94,92.87 55.94,94.21C55.934,94.508 55.887,94.804 55.8,95.09C55.353,96.53 53.907,97.41 51.46,97.73C49.342,97.917 47.215,97.984 45.09,97.93C44.986,98.672 44.943,99.421 44.96,100.17C44.96,102.337 45.253,106.833 45.84,113.66C46.327,120.033 46.53,123.85 46.45,125.11C46.455,125.168 46.457,125.225 46.457,125.283C46.457,126.457 45.491,127.423 44.317,127.423C44.238,127.423 44.159,127.419 44.08,127.41C42.74,127.456 41.542,126.544 41.23,125.24C40.823,124.113 40.393,119.55 39.94,111.55C39.54,103.923 38.977,99.453 38.25,98.14C36.703,99.427 34.771,100.166 32.76,100.24C31.983,100.249 31.223,100.011 30.59,99.56C29.893,99.181 29.452,98.454 29.44,97.66C29.536,96.556 30.205,95.579 31.2,95.09C32.592,94.58 34.019,94.172 35.47,93.87C36.796,93.723 38.037,93.143 39,92.22C39.663,91.273 40.038,90.155 40.08,89C40.17,87.7 40.26,86.46 40.35,85.24Z" style="fill:white;fill-rule:nonzero;"/>
    </g>
    <g transform="matrix(2.95725,0,0,2.95725,77.4533,281.141)">
        <path d="M70.71,103.81C70.685,104.52 70.471,105.21 70.09,105.81C69.69,106.54 69.26,106.9 68.81,106.9C68.097,106.899 67.436,106.517 67.08,105.9C66.692,105.4 66.509,104.77 66.57,104.14C66.75,103.14 67.57,102.71 68.88,102.71C70.19,102.71 70.71,103.09 70.71,103.81Z" style="fill:white;fill-rule:nonzero;"/>
    </g>
    <g transform="matrix(2.95725,0,0,2.95725,77.4533,281.141)">
        <path d="M78.84,88.5C77.507,85.7 74.863,84.297 70.91,84.29C67.316,84.231 63.789,85.279 60.81,87.29C60.634,87.624 60.564,88.005 60.61,88.38C60.602,89.288 60.786,90.188 61.15,91.02C61.61,92.02 62.15,92.57 62.92,92.57C63.129,92.564 63.335,92.524 63.53,92.45C64.88,91.96 66.27,91.45 67.69,90.89C68.93,90.384 70.251,90.107 71.59,90.07C72.264,90.074 72.935,90.155 73.59,90.31C74.26,90.46 74.59,91.11 74.59,92.31C74.636,93.097 74.448,93.88 74.05,94.56C74.05,94.43 72.96,94.37 70.79,94.37C65.55,94.37 61.573,96.2 58.86,99.86C57.68,101.516 57.085,103.519 57.17,105.55C57.1,106.902 57.484,108.24 58.26,109.35C59.537,111.41 61.62,112.843 64,113.3L71.25,114.51C71.57,114.51 71.91,114.84 72.25,115.46C72.523,116.061 72.934,116.589 73.45,117C73.78,117.229 74.169,117.358 74.57,117.37C75.74,117.37 76.57,115.99 77.15,113.24C77.377,112.02 77.6,109.713 77.82,106.32C78.095,104.13 78.489,101.957 79,99.81C79.505,97.745 79.803,95.634 79.89,93.51C79.922,91.782 79.563,90.07 78.84,88.5ZM73.08,105.37C72.63,107 72.34,108.13 72.2,108.75C72.06,109.07 71.48,109.23 70.44,109.23C68.63,109.227 66.836,108.888 65.15,108.23C63.15,107.51 62.15,106.63 62.15,105.59C62.197,103.203 63.55,101.623 66.21,100.85C68.47,100.4 70.76,99.92 73.06,99.42C73.453,100.319 73.66,101.289 73.67,102.27C73.625,103.326 73.426,104.371 73.08,105.37Z" style="fill:white;fill-rule:nonzero;"/>
    </g>
    <g transform="matrix(2.95725,0,0,2.95725,77.4533,281.141)">
        <path d="M70.71,103.81C70.685,104.52 70.471,105.21 70.09,105.81C69.69,106.54 69.26,106.9 68.81,106.9C68.097,106.899 67.436,106.517 67.08,105.9C66.692,105.4 66.509,104.77 66.57,104.14C66.75,103.14 67.57,102.71 68.88,102.71C70.19,102.71 70.71,103.09 70.71,103.81Z" style="fill:white;fill-rule:nonzero;"/>
    </g>
    <g transform="matrix(2.95725,0,0,2.95725,77.4533,281.141)">
        <path d="M70.71,103.81C70.685,104.52 70.471,105.21 70.09,105.81C69.69,106.54 69.26,106.9 68.81,106.9C68.097,106.899 67.436,106.517 67.08,105.9C66.692,105.4 66.509,104.77 66.57,104.14C66.75,103.14 67.57,102.71 68.88,102.71C70.19,102.71 70.71,103.09 70.71,103.81Z" style="fill:white;fill-rule:nonzero;"/>
    </g>
    <g transform="matrix(2.95725,0,0,2.95725,77.4533,281.141)">
        <path d="M83.92,90.59C83.9,88.554 83.686,86.525 83.28,84.53C82.892,82.618 82.655,80.679 82.57,78.73C82.55,77.205 82.893,75.697 83.57,74.33C84.242,72.911 85.724,72.046 87.29,72.16C89.1,72.16 90.07,73.16 90.21,75.01C90.214,75.491 90.143,75.97 90,76.43C89.905,76.855 89.838,77.286 89.8,77.72L89.8,92.22C89.712,94.32 89.736,96.423 89.87,98.52C90.05,101.64 90.14,103.697 90.14,104.69C90.24,107.827 89.66,110.948 88.44,113.84C88.001,114.929 86.901,115.615 85.73,115.53C84.835,115.525 83.958,115.28 83.19,114.82C82.331,114.248 81.869,113.234 82,112.21C82.003,111.84 82.074,111.474 82.21,111.13C83.11,107.827 83.591,104.423 83.64,101C83.73,97.48 83.83,94 83.92,90.59Z" style="fill:white;fill-rule:nonzero;"/>
    </g>
    <g transform="matrix(2.95725,0,0,2.95725,77.4533,281.141)">
        <path d="M94.83,96.42C94.699,93.603 95.672,90.843 97.54,88.73C99.341,86.704 101.95,85.576 104.66,85.65C107.743,85.655 110.695,86.916 112.83,89.14C115.101,91.238 116.372,94.209 116.32,97.3C115.913,98.567 114.217,100.08 111.23,101.84C109.102,103.03 107.046,104.342 105.07,105.77C104.3,106.14 103.91,106.52 103.91,106.93C103.91,107.65 104.41,108.29 105.41,108.86C106.204,109.36 107.113,109.649 108.05,109.7C109.54,109.7 111.68,108.98 114.49,107.54C115.325,108.123 115.808,109.093 115.77,110.11C115.771,110.968 115.486,111.802 114.96,112.48C114.468,113.181 113.707,113.648 112.86,113.77C111.044,114.097 109.211,114.324 107.37,114.45C105.952,114.474 104.544,114.198 103.24,113.64C97.86,111.213 95.057,105.473 94.83,96.42ZM102.22,99.88C106.22,99.7 108.66,98.277 109.54,95.61C109.715,95.273 109.807,94.9 109.81,94.52C109.784,93.536 109.207,92.646 108.32,92.22C107.314,91.629 106.166,91.325 105,91.34C104.196,91.316 103.4,91.502 102.69,91.88C101.357,92.547 100.69,93.97 100.69,96.15C100.73,98.55 101.23,99.79 102.22,99.88Z" style="fill:white;fill-rule:nonzero;"/>
    </g>
    <g transform="matrix(2.95725,0,0,2.95725,77.4533,281.141)">
        <path d="M119.3,100.83C119.3,100.1 119.24,98.95 119.13,97.37C119.02,95.79 118.96,94.62 118.96,93.85C118.912,92.425 119.119,91.003 119.57,89.65C120.022,88.667 121.066,88.086 122.14,88.22C123.372,88.053 124.556,88.811 124.92,90C125.022,90.323 125.069,90.661 125.06,91C125.016,91.703 124.888,92.397 124.68,93.07C124.476,93.763 124.351,94.478 124.31,95.2C124.72,95.57 124.92,95.84 124.92,96.02C125.813,94.417 126.816,92.876 127.92,91.41C128.927,90.053 130.501,89.227 132.19,89.17C132.81,89.174 133.426,89.265 134.02,89.44C135.732,92.464 136.795,95.812 137.14,99.27C137.27,100.4 137.48,103.9 137.75,109.77C138.24,111.77 137.95,112.92 136.87,113.23C135.948,113.537 134.99,113.718 134.02,113.77C133.02,113.77 132.39,113.39 132.26,112.62C132.033,110.9 131.83,108.1 131.65,104.22C131.594,101.469 131.32,98.727 130.83,96.02C129.281,97.939 128.089,100.12 127.31,102.46C126.45,104.832 125.449,107.149 124.31,109.4C123.797,110.373 122.769,110.969 121.67,110.93C120.464,110.938 119.432,110.028 119.29,108.83C119.048,107.535 118.957,106.216 119.02,104.9C119.23,101.89 119.3,100.56 119.3,100.83Z" style="fill:white;fill-rule:nonzero;"/>
    </g>
    <g transform="matrix(2.95725,0,0,2.95725,77.4533,281.141)">
        <path d="M126.75,79.28C127.16,79.28 127.57,79.99 128,81.28C128.411,82.444 128.63,83.666 128.65,84.9C128.65,86.21 128.24,86.9 127.43,86.9C126.43,86.9 125.06,85.47 123.29,82.63C123.162,82.375 123.093,82.095 123.09,81.81C123.177,81.025 123.666,80.338 124.38,80C125.061,79.49 125.9,79.236 126.75,79.28Z" style="fill:white;fill-rule:nonzero;"/>
    </g>
    <g transform="matrix(2.95725,0,0,2.95725,77.4533,281.141)">
        <path d="M135.9,79.21C135.803,80.483 135.464,81.725 134.9,82.87C134.13,84.59 133.36,85.44 132.6,85.44C131.84,85.44 131.38,84.65 130.97,83.07C130.97,82.89 130.77,81.83 130.5,79.89C130.31,78.67 131.29,78.06 133.41,78.06C135.09,78.06 135.9,78.44 135.9,79.21Z" style="fill:white;fill-rule:nonzero;"/>
    </g>
    <g transform="matrix(2.95725,0,0,2.95725,77.4533,281.141)">
        <path d="M143,85.24C143.22,85.78 142.69,86.47 141.4,87.31C140.523,88.039 139.38,88.369 138.25,88.22C137.58,88.04 137.25,87.45 137.25,86.46C137.274,85.008 137.67,83.586 138.4,82.33C138.552,82.026 138.87,81.837 139.21,81.85C140.062,81.965 140.839,82.402 141.38,83.07C142.045,83.691 142.593,84.426 143,85.24Z" style="fill:white;fill-rule:nonzero;"/>
    </g>
    <g transform="matrix(2.95725,0,0,2.95725,77.4533,281.141)">
        <path d="M152,85.24C152.22,83.7 152.553,81.397 153,78.33C153.18,76.517 154.357,75.613 156.53,75.62C157.829,75.616 159.101,75.992 160.19,76.7C160.748,77.335 160.878,78.244 160.52,79.01C158.647,83.37 157.746,88.086 157.88,92.83C162.173,92.423 164.23,92.22 164.05,92.22C166.4,92.22 167.57,92.88 167.57,94.22C167.567,94.518 167.524,94.814 167.44,95.1C166.993,96.54 165.547,97.42 163.1,97.74C160.982,97.927 158.855,97.994 156.73,97.94C156.626,98.682 156.583,99.431 156.6,100.18C156.6,102.347 156.893,106.843 157.48,113.67C157.967,120.043 158.17,123.86 158.09,125.12C158.094,125.174 158.096,125.229 158.096,125.283C158.096,126.462 157.126,127.433 155.946,127.433C155.867,127.433 155.788,127.429 155.71,127.42C154.372,127.465 153.178,126.553 152.87,125.25C152.463,124.123 152.033,119.56 151.58,111.56C151.167,103.933 150.603,99.463 149.89,98.15C148.341,99.435 146.411,100.173 144.4,100.25C143.623,100.261 142.862,100.023 142.23,99.57C141.533,99.191 141.092,98.464 141.08,97.67C141.176,96.566 141.845,95.589 142.84,95.1C144.231,94.588 145.658,94.181 147.11,93.88C148.429,93.734 149.665,93.162 150.63,92.25C151.316,91.3 151.709,90.17 151.76,89C151.85,87.7 151.94,86.46 152,85.24Z" style="fill:white;fill-rule:nonzero;"/>
    </g>
</svg>
