<?xml version="1.0" encoding="UTF-8" standalone="no"?>
<!DOCTYPE svg PUBLIC "-//W3C//DTD SVG 1.1//EN" "http://www.w3.org/Graphics/SVG/1.1/DTD/svg11.dtd">
<svg width="100%" height="100%" viewBox="0 0 256 256" version="1.1" xmlns="http://www.w3.org/2000/svg" xmlns:xlink="http://www.w3.org/1999/xlink" xml:space="preserve" xmlns:serif="http://www.serif.com/" style="fill-rule:evenodd;clip-rule:evenodd;stroke-linejoin:round;stroke-miterlimit:1.41421;">
    <g transform="matrix(0.435344,0,0,0.435344,-185.447,7.94586)">
        <g transform="matrix(8.16044,0,0,8.16044,-3534.34,-3156.11)">
            <g transform="matrix(1,0,0,1,484.587,422.684)">
                <path d="M9.12,-8.4L7.2,-8.4L4.92,-4.668L2.64,-8.4L0.72,-8.4L0.72,0L2.64,0L2.64,-4.884L4.812,-1.32L5.028,-1.32L7.2,-4.884L7.2,0L9.12,0L9.12,-8.4Z" style="fill:rgb(0,191,255);fill-rule:nonzero;"/>
                <path d="M11.4,-6.528C11.988,-6.528 12.48,-7.02 12.48,-7.608C12.48,-8.196 11.988,-8.688 11.4,-8.688C10.812,-8.688 10.32,-8.196 10.32,-7.608C10.32,-7.02 10.812,-6.528 11.4,-6.528ZM10.5,0L12.3,0L12.3,-6L10.5,-6L10.5,0Z" style="fill:rgb(0,191,255);fill-rule:nonzero;"/>
                <path d="M15.42,-4.932L15.42,-6L13.62,-6L13.62,0L15.42,0L15.42,-2.712C15.42,-3.9 16.476,-4.2 17.22,-4.08L17.22,-6.12C16.464,-6.12 15.66,-5.736 15.42,-4.932Z" style="fill:rgb(0,191,255);fill-rule:nonzero;"/>
            </g>
            <g transform="matrix(1,0,0,1,501.807,422.684)">
                <path d="M5.016,-6L5.016,-5.436C4.62,-5.892 4.032,-6.168 3.228,-6.168C1.656,-6.168 0.36,-4.788 0.36,-3C0.36,-1.212 1.656,0.168 3.228,0.168C4.032,0.168 4.62,-0.108 5.016,-0.564L5.016,0L6.816,0L6.816,-6L5.016,-6ZM3.588,-1.536C2.76,-1.536 2.16,-2.1 2.16,-3C2.16,-3.9 2.76,-4.464 3.588,-4.464C4.416,-4.464 5.016,-3.9 5.016,-3C5.016,-2.1 4.416,-1.536 3.588,-1.536Z" style="fill:rgb(0,191,255);fill-rule:nonzero;"/>
                <path d="M14.136,0.168C15.96,0.168 17.256,-0.792 17.256,-2.412C17.256,-4.188 15.828,-4.632 14.556,-5.016C13.248,-5.412 13.044,-5.676 13.044,-6.06C13.044,-6.396 13.344,-6.696 13.944,-6.696C14.712,-6.696 15.108,-6.324 15.396,-5.724L17.016,-6.672C16.404,-7.908 15.324,-8.568 13.944,-8.568C12.492,-8.568 11.124,-7.632 11.124,-6.012C11.124,-4.404 12.348,-3.804 13.596,-3.456C14.856,-3.108 15.336,-2.904 15.336,-2.388C15.336,-2.064 15.108,-1.704 14.196,-1.704C13.248,-1.704 12.732,-2.172 12.432,-2.868L10.776,-1.908C11.244,-0.672 12.372,0.168 14.136,0.168Z" style="fill:rgb(0,191,255);fill-rule:nonzero;"/>
            </g>
            <g transform="matrix(1,0,0,1,519.063,422.684)">
                <path d="M4.44,-6L3.312,-2.328L1.98,-6L0,-6L2.388,-0.276C2.124,0.456 1.728,0.72 0.888,0.72L0.888,2.4C2.568,2.484 3.636,1.728 4.308,-0.18L6.36,-6L4.44,-6Z" style="fill:rgb(0,191,255);fill-rule:nonzero;"/>
                <path d="M8.364,-4.248C8.364,-4.464 8.556,-4.584 8.868,-4.584C9.264,-4.584 9.504,-4.368 9.672,-4.056L11.208,-4.884C10.704,-5.736 9.84,-6.168 8.868,-6.168C7.62,-6.168 6.516,-5.508 6.516,-4.2C6.516,-2.124 9.468,-2.472 9.468,-1.812C9.468,-1.572 9.252,-1.44 8.82,-1.44C8.292,-1.44 7.956,-1.692 7.8,-2.148L6.24,-1.26C6.708,-0.288 7.62,0.168 8.82,0.168C10.116,0.168 11.316,-0.42 11.316,-1.8C11.316,-4.02 8.364,-3.564 8.364,-4.248Z" style="fill:rgb(0,191,255);fill-rule:nonzero;"/>
                <path d="M15.552,-4.272L15.552,-6L14.316,-6L14.316,-7.68L12.516,-7.14L12.516,-6L11.556,-6L11.556,-4.272L12.516,-4.272L12.516,-2.148C12.516,-0.468 13.2,0.24 15.552,0L15.552,-1.632C14.76,-1.584 14.316,-1.632 14.316,-2.148L14.316,-4.272L15.552,-4.272Z" style="fill:rgb(0,191,255);fill-rule:nonzero;"/>
                <path d="M18.06,-2.28L22.32,-2.28C22.368,-2.508 22.392,-2.748 22.392,-3C22.392,-4.812 21.096,-6.168 19.344,-6.168C17.448,-6.168 16.152,-4.788 16.152,-3C16.152,-1.212 17.424,0.168 19.476,0.168C20.616,0.168 21.504,-0.252 22.092,-1.068L20.652,-1.896C20.412,-1.632 19.992,-1.44 19.5,-1.44C18.84,-1.44 18.288,-1.656 18.06,-2.28ZM18.024,-3.624C18.192,-4.236 18.648,-4.572 19.332,-4.572C19.872,-4.572 20.412,-4.32 20.604,-3.624L18.024,-3.624Z" style="fill:rgb(0,191,255);fill-rule:nonzero;"/>
                <path d="M30.132,-6.168C29.28,-6.168 28.728,-5.856 28.392,-5.376C28.056,-5.88 27.528,-6.168 26.82,-6.168C26.016,-6.168 25.488,-5.856 25.212,-5.448L25.212,-6L23.412,-6L23.412,0L25.212,0L25.212,-3.384C25.212,-4.092 25.548,-4.512 26.148,-4.512C26.724,-4.512 27.012,-4.128 27.012,-3.528L27.012,0L28.812,0L28.812,-3.384C28.812,-4.092 29.148,-4.512 29.748,-4.512C30.324,-4.512 30.612,-4.128 30.612,-3.528L30.612,0L32.412,0L32.412,-3.684C32.412,-5.184 31.512,-6.168 30.132,-6.168Z" style="fill:rgb(0,191,255);fill-rule:nonzero;"/>
                <path d="M35.352,-4.248C35.352,-4.464 35.544,-4.584 35.856,-4.584C36.252,-4.584 36.492,-4.368 36.66,-4.056L38.196,-4.884C37.692,-5.736 36.828,-6.168 35.856,-6.168C34.608,-6.168 33.504,-5.508 33.504,-4.2C33.504,-2.124 36.456,-2.472 36.456,-1.812C36.456,-1.572 36.24,-1.44 35.808,-1.44C35.28,-1.44 34.944,-1.692 34.788,-2.148L33.228,-1.26C33.696,-0.288 34.608,0.168 35.808,0.168C37.104,0.168 38.304,-0.42 38.304,-1.8C38.304,-4.02 35.352,-3.564 35.352,-4.248Z" style="fill:rgb(0,191,255);fill-rule:nonzero;"/>
            </g>
        </g>
        <g transform="matrix(6.68887,0,0,6.68887,-2492.89,-2503.92)">
            <g transform="matrix(1,0,0,1,484.587,422.684)">
                <path d="M1.544,-3.088L0.384,-3.088L0.384,0L1.544,0C2.396,0 3,-0.693 3,-1.544C3,-2.396 2.396,-3.088 1.544,-3.088ZM1.544,-0.221L0.618,-0.221L0.618,-2.868L1.544,-2.868C2.272,-2.868 2.771,-2.277 2.771,-1.544C2.771,-0.812 2.272,-0.221 1.544,-0.221Z" style="fill:rgb(0,191,255);fill-rule:nonzero;"/>
                <path d="M4.54,-2.255C3.865,-2.255 3.397,-1.752 3.397,-1.103C3.397,-0.437 3.878,0.049 4.558,0.049C4.994,0.049 5.339,-0.15 5.519,-0.45L5.325,-0.565C5.197,-0.331 4.924,-0.163 4.562,-0.163C4.059,-0.163 3.68,-0.49 3.627,-0.988L5.625,-0.988C5.625,-1.024 5.63,-1.059 5.63,-1.094C5.63,-1.699 5.211,-2.255 4.54,-2.255ZM4.54,-2.043C4.972,-2.043 5.352,-1.743 5.4,-1.204L3.627,-1.204C3.671,-1.694 4.037,-2.043 4.54,-2.043Z" style="fill:rgb(0,191,255);fill-rule:nonzero;"/>
                <path d="M7.677,-2.206L6.843,-0.229L6.014,-2.206L5.775,-2.206L6.711,0L6.98,0L7.911,-2.206L7.677,-2.206Z" style="fill:rgb(0,191,255);fill-rule:nonzero;"/>
            </g>
            <g transform="matrix(1,0,0,1,492.47,422.684)">
                <path d="M1.332,-2.255C0.657,-2.255 0.19,-1.752 0.19,-1.103C0.19,-0.437 0.671,0.049 1.35,0.049C1.787,0.049 2.131,-0.15 2.312,-0.45L2.118,-0.565C1.99,-0.331 1.716,-0.163 1.354,-0.163C0.852,-0.163 0.472,-0.49 0.419,-0.988L2.418,-0.988C2.418,-1.024 2.422,-1.059 2.422,-1.094C2.422,-1.699 2.003,-2.255 1.332,-2.255ZM1.332,-2.043C1.765,-2.043 2.144,-1.743 2.193,-1.204L0.419,-1.204C0.463,-1.694 0.829,-2.043 1.332,-2.043Z" style="fill:rgb(0,191,255);fill-rule:nonzero;"/>
                <rect x="2.938" y="-3.221" width="0.221" height="3.221" style="fill:rgb(0,191,255);"/>
                <path d="M4.849,0.049C5.489,0.049 6.005,-0.45 6.005,-1.103C6.005,-1.756 5.489,-2.255 4.849,-2.255C4.205,-2.255 3.688,-1.756 3.688,-1.103C3.688,-0.45 4.205,0.049 4.849,0.049ZM4.849,-0.163C4.324,-0.163 3.913,-0.578 3.913,-1.103C3.913,-1.628 4.324,-2.043 4.849,-2.043C5.374,-2.043 5.78,-1.628 5.78,-1.103C5.78,-0.578 5.374,-0.163 4.849,-0.163Z" style="fill:rgb(0,191,255);fill-rule:nonzero;"/>
                <path d="M7.703,-2.255C7.275,-2.255 6.936,-2.034 6.755,-1.694L6.755,-2.206L6.534,-2.206L6.534,0.882L6.755,0.882L6.755,-0.512C6.936,-0.172 7.275,0.049 7.703,0.049C8.334,0.049 8.846,-0.45 8.846,-1.103C8.846,-1.756 8.334,-2.255 7.703,-2.255ZM7.69,-0.163C7.165,-0.163 6.755,-0.578 6.755,-1.103C6.755,-1.628 7.165,-2.043 7.69,-2.043C8.215,-2.043 8.625,-1.628 8.625,-1.103C8.625,-0.578 8.215,-0.163 7.69,-0.163Z" style="fill:rgb(0,191,255);fill-rule:nonzero;"/>
                <path d="M11.736,-2.255C11.44,-2.255 11.158,-2.113 10.999,-1.805C10.884,-2.096 10.633,-2.255 10.311,-2.255C10.028,-2.255 9.764,-2.131 9.601,-1.827L9.601,-2.206L9.38,-2.206L9.38,0L9.601,0L9.601,-1.231C9.601,-1.796 9.923,-2.043 10.284,-2.043C10.624,-2.043 10.849,-1.818 10.849,-1.399L10.849,0L11.07,0L11.07,-1.231C11.07,-1.796 11.361,-2.043 11.732,-2.043C12.076,-2.043 12.318,-1.818 12.318,-1.399L12.318,0L12.539,0L12.539,-1.399C12.539,-1.95 12.204,-2.255 11.736,-2.255Z" style="fill:rgb(0,191,255);fill-rule:nonzero;"/>
                <path d="M14.154,-2.255C13.479,-2.255 13.011,-1.752 13.011,-1.103C13.011,-0.437 13.492,0.049 14.171,0.049C14.608,0.049 14.952,-0.15 15.133,-0.45L14.939,-0.565C14.811,-0.331 14.538,-0.163 14.176,-0.163C13.673,-0.163 13.293,-0.49 13.24,-0.988L15.239,-0.988C15.239,-1.024 15.243,-1.059 15.243,-1.094C15.243,-1.699 14.824,-2.255 14.154,-2.255ZM14.154,-2.043C14.586,-2.043 14.966,-1.743 15.014,-1.204L13.24,-1.204C13.285,-1.694 13.651,-2.043 14.154,-2.043Z" style="fill:rgb(0,191,255);fill-rule:nonzero;"/>
                <path d="M16.77,-2.255C16.43,-2.255 16.148,-2.113 15.98,-1.787L15.98,-2.206L15.76,-2.206L15.76,0L15.98,0L15.98,-1.165C15.98,-1.76 16.32,-2.043 16.752,-2.043C17.167,-2.043 17.401,-1.778 17.401,-1.372L17.401,0L17.626,0L17.626,-1.372C17.626,-1.906 17.295,-2.255 16.77,-2.255Z" style="fill:rgb(0,191,255);fill-rule:nonzero;"/>
                <path d="M19.378,-1.99L19.378,-2.206L18.72,-2.206L18.72,-2.824L18.495,-2.758L18.495,-2.206L18.01,-2.206L18.01,-1.99L18.495,-1.99L18.495,-0.556C18.495,-0.053 18.8,0.088 19.378,0L19.378,-0.199C18.927,-0.159 18.72,-0.168 18.72,-0.556L18.72,-1.99L19.378,-1.99Z" style="fill:rgb(0,191,255);fill-rule:nonzero;"/>
                <path d="M23.026,-3.088L20.847,-3.088L20.847,-2.868L21.817,-2.868L21.817,0L22.056,0L22.056,-2.868L23.026,-2.868L23.026,-3.088Z" style="fill:rgb(0,191,255);fill-rule:nonzero;"/>
            </g>
            <g transform="matrix(1,0,0,1,515.198,422.684)">
                <path d="M1.332,-2.255C0.657,-2.255 0.19,-1.752 0.19,-1.103C0.19,-0.437 0.671,0.049 1.35,0.049C1.787,0.049 2.131,-0.15 2.312,-0.45L2.118,-0.565C1.99,-0.331 1.716,-0.163 1.354,-0.163C0.852,-0.163 0.472,-0.49 0.419,-0.988L2.418,-0.988C2.418,-1.024 2.422,-1.059 2.422,-1.094C2.422,-1.699 2.003,-2.255 1.332,-2.255ZM1.332,-2.043C1.765,-2.043 2.144,-1.743 2.193,-1.204L0.419,-1.204C0.463,-1.694 0.829,-2.043 1.332,-2.043Z" style="fill:rgb(0,191,255);fill-rule:nonzero;"/>
                <path d="M4.88,-2.206L4.88,-1.707C4.694,-2.038 4.355,-2.255 3.931,-2.255C3.305,-2.255 2.788,-1.756 2.788,-1.103C2.788,-0.45 3.305,0.049 3.931,0.049C4.355,0.049 4.694,-0.168 4.88,-0.499L4.88,0L5.105,0L5.105,-2.206L4.88,-2.206ZM3.949,-0.163C3.424,-0.163 3.013,-0.578 3.013,-1.103C3.013,-1.628 3.424,-2.043 3.949,-2.043C4.474,-2.043 4.88,-1.628 4.88,-1.103C4.88,-0.578 4.474,-0.163 3.949,-0.163Z" style="fill:rgb(0,191,255);fill-rule:nonzero;"/>
                <path d="M8.14,-2.255C7.845,-2.255 7.562,-2.113 7.403,-1.805C7.289,-2.096 7.037,-2.255 6.715,-2.255C6.433,-2.255 6.168,-2.131 6.005,-1.827L6.005,-2.206L5.784,-2.206L5.784,0L6.005,0L6.005,-1.231C6.005,-1.796 6.327,-2.043 6.689,-2.043C7.028,-2.043 7.253,-1.818 7.253,-1.399L7.253,0L7.474,0L7.474,-1.231C7.474,-1.796 7.765,-2.043 8.136,-2.043C8.48,-2.043 8.723,-1.818 8.723,-1.399L8.723,0L8.943,0L8.943,-1.399C8.943,-1.95 8.608,-2.255 8.14,-2.255Z" style="fill:rgb(0,191,255);fill-rule:nonzero;"/>
            </g>
        </g>
    </g>
</svg>
