<?xml version="1.0" encoding="UTF-8" standalone="no"?>
<!DOCTYPE svg PUBLIC "-//W3C//DTD SVG 1.1//EN" "http://www.w3.org/Graphics/SVG/1.1/DTD/svg11.dtd">
<svg width="100%" height="100%" viewBox="0 0 256 256" version="1.1" xmlns="http://www.w3.org/2000/svg" xmlns:xlink="http://www.w3.org/1999/xlink" xml:space="preserve" xmlns:serif="http://www.serif.com/" style="fill-rule:evenodd;clip-rule:evenodd;stroke-linejoin:round;stroke-miterlimit:2;">
    <g transform="matrix(0.333579,0,0,0.333579,14.0302,211.517)">
        <g id="Path_64" transform="matrix(5.7358,0,0,5.7358,33.8256,-491.157)">
            <path d="M26.843,13.437L26.843,0L13.437,0L13.437,13.437L0,13.437L0,26.843L13.437,26.843L13.437,40.28L26.843,40.28L26.843,26.843L40.28,26.843L40.28,13.437L26.843,13.437Z" style="fill:rgb(237,28,36);fill-rule:nonzero;"/>
        </g>
        <g id="Group_59-2" transform="matrix(5.7358,0,0,5.7358,110.186,-185.53)">
            <g id="Path_65" transform="matrix(1,0,0,1,-43,-172.928)">
                <path d="M44.889,181.381L44.889,186.273C44.889,186.552 44.796,186.673 44.548,186.673L43.341,186.673C43.093,186.673 43,186.549 43,186.273L43,173.7C43,173.421 43.093,173.3 43.341,173.3L47.335,173.3C50.71,173.3 51.793,174.724 51.793,176.334L51.793,178.377C51.819,179.731 50.838,180.911 49.502,181.133L51.855,186.273C51.948,186.521 51.762,186.673 51.514,186.673L50.338,186.673C50.059,186.673 50.028,186.518 49.905,186.273L47.676,181.381L44.889,181.381ZM44.889,174.91L44.889,179.74L47.335,179.74C49.1,179.74 49.905,179.121 49.905,178.04L49.905,176.647C49.905,175.594 49.131,174.947 47.335,174.947L44.889,174.947L44.889,174.91Z" style="fill-rule:nonzero;"/>
            </g>
            <g id="Path_66" transform="matrix(1,0,0,1,-69.787,-180.661)">
                <path d="M81.8,187.194C81.8,185.584 82.946,184.5 85.732,184.5C88.518,184.5 89.664,185.584 89.664,187.194L89.664,191.869C89.664,193.479 88.518,194.563 85.732,194.563C82.946,194.563 81.8,193.479 81.8,191.869L81.8,187.194ZM87.776,187.349C87.776,186.513 87.188,186.018 85.702,186.018C84.216,186.018 83.628,186.482 83.628,187.349L83.628,191.715C83.628,192.551 84.216,193.046 85.702,193.046C87.188,193.046 87.776,192.582 87.776,191.715L87.776,187.349Z" style="fill-rule:nonzero;"/>
            </g>
            <g id="Path_67" transform="matrix(1,0,0,1,-94.572,-172.169)">
                <path d="M123.737,184.925C122.816,185.666 121.668,186.07 120.486,186.071C120.372,186.087 120.256,186.095 120.141,186.095C118.796,186.095 117.689,184.989 117.689,183.643C117.689,183.565 117.692,183.486 117.7,183.408L117.7,178.7C117.692,178.622 117.689,178.543 117.689,178.465C117.689,177.119 118.796,176.013 120.141,176.013C120.256,176.013 120.372,176.021 120.486,176.037C121.653,176.041 122.786,176.433 123.706,177.152L123.706,172.6C123.706,172.321 123.799,172.2 124.047,172.2L125.193,172.2C125.472,172.2 125.565,172.324 125.565,172.6L125.565,185.542C125.565,185.821 125.472,185.942 125.193,185.942L124.14,185.942C123.861,185.942 123.799,185.818 123.768,185.542L123.737,184.925ZM119.557,183.098C119.557,183.779 119.898,184.367 121.012,184.367C121.981,184.32 122.911,183.974 123.675,183.376L123.675,178.732C122.923,178.11 121.987,177.751 121.012,177.71C119.897,177.71 119.557,178.298 119.557,178.979L119.557,183.098Z" style="fill-rule:nonzero;"/>
            </g>
            <g id="Path_68" transform="matrix(1,0,0,1,-119.771,-180.592)">
                <path d="M161.755,189.509C161.755,189.757 161.662,189.85 161.414,189.85L156.058,189.85L156.058,191.65C156.058,192.45 156.458,192.981 158.009,192.981C159.588,192.981 159.96,192.455 159.96,191.65L159.96,191.433C159.96,191.185 160.053,191.061 160.332,191.061L161.323,191.061C161.339,191.059 161.355,191.058 161.37,191.058C161.55,191.058 161.698,191.206 161.698,191.386C161.698,191.401 161.697,191.417 161.695,191.433L161.695,191.774C161.695,193.384 160.735,194.468 157.949,194.468C155.163,194.468 154.203,193.384 154.203,191.774L154.203,187.099C154.203,185.489 155.194,184.405 158.011,184.405C160.797,184.405 161.726,185.489 161.726,187.099L161.726,189.514L161.755,189.509ZM156.055,188.456L159.987,188.456L159.987,187.218C159.987,186.444 159.487,185.887 158.036,185.887C156.55,185.887 156.085,186.413 156.085,187.218L156.085,188.456L156.055,188.456Z" style="fill-rule:nonzero;"/>
            </g>
            <g id="Path_69" transform="matrix(1,0,0,1,-155.878,-172.859)">
                <path d="M215.6,186.2C215.724,186.386 215.693,186.572 215.414,186.572L213.866,186.572C213.627,186.557 213.414,186.415 213.309,186.2L208.909,180.627L208.409,180.627L208.409,186.2C208.409,186.448 208.316,186.572 208.037,186.572L206.83,186.572C206.582,186.572 206.489,186.448 206.489,186.2L206.489,173.572C206.489,173.324 206.582,173.2 206.83,173.2L208.037,173.2C208.316,173.2 208.409,173.324 208.409,173.572L208.409,179.207L208.873,179.207L213,173.572C213.138,173.359 213.366,173.222 213.619,173.2L214.919,173.2C215.167,173.2 215.229,173.386 215.105,173.572L210.554,179.795L215.6,186.2Z" style="fill-rule:nonzero;"/>
            </g>
            <g id="Path_70" transform="matrix(1,0,0,1,-181.768,-180.717)">
                <path d="M249.294,184.928L249.294,185.828C249.294,186.107 249.17,186.2 248.894,186.228C247.771,186.308 246.706,186.754 245.86,187.497L245.86,194.092C245.86,194.371 245.767,194.492 245.519,194.492L244.373,194.492C244.094,194.492 244.001,194.368 244.001,194.092L244.001,185.113C244.001,184.865 244.094,184.741 244.373,184.741L245.426,184.741C245.705,184.741 245.767,184.865 245.798,185.113L245.86,185.949C246.669,185.119 247.767,184.631 248.925,184.587C249.171,184.556 249.294,184.649 249.294,184.928Z" style="fill-rule:nonzero;"/>
            </g>
            <g id="Path_71" transform="matrix(1,0,0,1,-199.028,-180.799)">
                <path d="M274.945,193.555C274.067,194.304 272.941,194.702 271.787,194.67C271.683,194.683 271.578,194.69 271.472,194.69C270.116,194.69 268.999,193.574 268.999,192.217C268.999,192.199 269,192.18 269,192.162L269,185.134C269,184.855 269.093,184.734 269.341,184.734L270.487,184.734C270.735,184.734 270.859,184.858 270.859,185.134L270.859,191.667C270.859,192.503 271.231,192.967 272.314,192.967C273.258,192.938 274.165,192.588 274.884,191.976L274.884,185.1C274.884,184.821 274.977,184.7 275.225,184.7L276.371,184.7C276.619,184.7 276.712,184.824 276.712,185.1L276.712,194.079C276.712,194.358 276.619,194.451 276.371,194.451L275.318,194.451C275.039,194.451 274.977,194.358 274.946,194.079L274.945,193.555Z" style="fill-rule:nonzero;"/>
            </g>
            <g id="Path_72" transform="matrix(1,0,0,1,-224.641,-172.1)">
                <path d="M307.958,174.267C307.958,174.515 307.865,174.639 307.617,174.639L306.471,174.639C306.192,174.639 306.099,174.515 306.099,174.267L306.099,172.5C306.099,172.221 306.192,172.1 306.471,172.1L307.617,172.1C307.865,172.1 307.958,172.224 307.958,172.5L307.958,174.267ZM307.958,185.444C307.958,185.723 307.865,185.844 307.617,185.844L306.471,185.844C306.192,185.844 306.099,185.72 306.099,185.444L306.099,176.465C306.099,176.186 306.192,176.065 306.471,176.065L307.617,176.065C307.865,176.065 307.958,176.189 307.958,176.465L307.958,185.444Z" style="fill-rule:nonzero;"/>
            </g>
            <g id="Path_73" transform="matrix(1,0,0,1,-236.033,-180.73)">
                <path d="M328.2,186.984C328.2,186.272 327.55,185.931 326.342,185.931C325.134,185.931 324.515,186.272 324.515,186.984L324.515,187.325C324.515,187.851 324.979,188.099 325.351,188.225L328.292,189.247C329.376,189.619 330.057,190.238 330.057,191.167L330.057,192.282C330.057,193.489 328.973,194.635 326.311,194.635C323.649,194.635 322.596,193.489 322.596,192.282L322.596,191.782C322.596,191.534 322.689,191.441 322.937,191.441L323.99,191.441C324.005,191.439 324.019,191.438 324.034,191.438C324.199,191.438 324.334,191.573 324.334,191.738C324.334,191.753 324.333,191.767 324.331,191.782L324.331,192.182C324.331,192.894 325.074,193.235 326.344,193.235C327.582,193.235 328.356,192.894 328.356,192.182L328.356,191.656C328.356,191.192 327.956,190.944 327.303,190.727L324.362,189.705C323.493,189.42 322.88,188.635 322.814,187.723L322.814,187.011C322.814,185.804 323.714,184.596 326.375,184.596C329.007,184.596 329.936,185.803 329.936,187.011L329.936,187.475C329.936,187.723 329.843,187.816 329.595,187.816L328.573,187.816C328.325,187.816 328.232,187.723 328.232,187.475L328.232,186.975L328.2,186.984Z" style="fill-rule:nonzero;"/>
            </g>
        </g>
        <g id="Group_60" transform="matrix(5.7358,0,0,5.7358,110.364,-89.4555)">
            <g id="Path_74" transform="matrix(1,0,0,1,-43.1,-226.89)">
                <path d="M47.4,240.606C47.173,240.622 46.97,240.459 46.936,240.234L43.131,227.6C43.038,227.352 43.162,227.228 43.41,227.228L44.741,227.228C44.989,227.228 45.082,227.352 45.174,227.6L47.62,235.743C47.819,236.528 47.973,237.324 48.084,238.127C48.195,238.93 48.363,236.486 48.584,235.774L51.03,227.574C51.123,227.326 51.216,227.202 51.463,227.202L52.67,227.202C52.949,227.202 53.042,227.326 52.98,227.574L49.169,240.2C49.076,240.448 48.952,240.572 48.705,240.572L47.4,240.572L47.4,240.606Z" style="fill-rule:nonzero;"/>
            </g>
            <g id="Path_75" transform="matrix(1,0,0,1,-69.542,-226.2)">
                <path d="M83.258,239.544C83.258,239.823 83.165,239.944 82.917,239.944L81.772,239.944C81.493,239.944 81.4,239.82 81.4,239.544L81.4,226.6C81.4,226.321 81.493,226.2 81.772,226.2L82.918,226.2C83.166,226.2 83.259,226.324 83.259,226.6L83.258,239.544Z" style="fill-rule:nonzero;"/>
            </g>
            <g id="Path_76" transform="matrix(1,0,0,1,-79.829,-234.692)">
                <path d="M96.517,241.163C96.517,239.584 97.539,238.5 100.232,238.5C103.019,238.5 103.947,239.584 103.947,241.163L103.947,248.036C103.947,248.315 103.854,248.436 103.606,248.436L102.584,248.436C102.305,248.436 102.243,248.312 102.212,248.036L102.181,247.479C101.311,248.203 100.213,248.598 99.081,248.594C97.254,248.594 96.294,247.479 96.294,246.21L96.294,245.281C96.298,243.961 97.386,242.877 98.706,242.877C98.811,242.877 98.915,242.883 99.019,242.897L102.119,242.897L102.119,241.38C102.119,240.58 101.719,240.049 100.199,240.049C98.713,240.049 98.248,240.513 98.248,241.318L98.248,241.473C98.248,241.752 98.155,241.873 97.876,241.873L96.857,241.873C96.609,241.873 96.516,241.749 96.516,241.473L96.517,241.163ZM102.117,246.024L102.117,244.324L99.4,244.324C98.409,244.324 98.1,244.757 98.1,245.531L98.1,245.931C98.1,246.705 98.533,247.046 99.524,247.046C100.474,246.98 101.381,246.623 102.121,246.024L102.117,246.024Z" style="fill-rule:nonzero;"/>
            </g>
            <g id="Path_77" transform="matrix(1,0,0,1,-102.75,-234.692)">
                <path d="M129.717,241.163C129.717,239.584 130.739,238.5 133.432,238.5C136.218,238.5 137.147,239.584 137.147,241.163L137.147,248.036C137.147,248.315 137.054,248.436 136.806,248.436L135.784,248.436C135.505,248.436 135.443,248.312 135.412,248.036L135.381,247.479C134.511,248.203 133.413,248.598 132.281,248.594C130.454,248.594 129.495,247.479 129.495,246.21L129.495,245.281C129.499,243.961 130.587,242.877 131.907,242.877C132.012,242.877 132.116,242.883 132.22,242.897L135.32,242.897L135.32,241.38C135.32,240.58 134.92,240.049 133.4,240.049C131.914,240.049 131.449,240.513 131.449,241.318L131.449,241.473C131.449,241.752 131.356,241.873 131.077,241.873L130.055,241.873C129.807,241.873 129.714,241.749 129.714,241.473L129.717,241.163ZM135.317,246.024L135.317,244.324L132.6,244.324C131.609,244.324 131.3,244.757 131.3,245.531L131.3,245.931C131.3,246.705 131.733,247.046 132.724,247.046C133.674,246.98 134.581,246.623 135.321,246.024L135.317,246.024Z" style="fill-rule:nonzero;"/>
            </g>
            <g id="Path_78" transform="matrix(1,0,0,1,-126.361,-234.692)">
                <path d="M165.093,238.655C165.372,238.655 165.434,238.779 165.465,239.027L165.496,239.646C166.41,238.892 167.562,238.486 168.747,238.5C170.574,238.5 171.533,239.553 171.533,241.008L171.533,248.008C171.533,248.287 171.44,248.408 171.192,248.408L170.046,248.408C169.798,248.408 169.674,248.284 169.674,248.008L169.674,241.475C169.674,240.675 169.302,240.175 168.219,240.175C167.249,240.216 166.317,240.563 165.556,241.166L165.556,248.008C165.556,248.287 165.463,248.408 165.215,248.408L164.069,248.408C163.79,248.408 163.697,248.284 163.697,248.008L163.697,239.029C163.697,238.781 163.79,238.657 164.069,238.657L165.093,238.655Z" style="fill-rule:nonzero;"/>
            </g>
            <g id="Path_79" transform="matrix(1,0,0,1,-149.903,-226.269)">
                <path d="M203.837,239.025C202.916,239.766 201.768,240.17 200.586,240.171C200.472,240.187 200.356,240.195 200.241,240.195C198.896,240.195 197.789,239.089 197.789,237.743C197.789,237.665 197.792,237.586 197.8,237.508L197.8,232.8C197.792,232.722 197.789,232.643 197.789,232.565C197.789,231.219 198.896,230.113 200.241,230.113C200.356,230.113 200.472,230.121 200.586,230.137C201.753,230.141 202.886,230.533 203.806,231.252L203.806,226.7C203.806,226.421 203.899,226.3 204.147,226.3L205.293,226.3C205.572,226.3 205.665,226.424 205.665,226.7L205.665,239.642C205.665,239.921 205.572,240.042 205.293,240.042L204.24,240.042C203.961,240.042 203.899,239.918 203.868,239.642L203.837,239.025ZM199.688,237.198C199.688,237.879 200.029,238.467 201.143,238.467C202.112,238.42 203.042,238.074 203.806,237.476L203.806,232.832C203.054,232.21 202.118,231.851 201.143,231.81C200.028,231.81 199.688,232.398 199.688,233.079L199.688,237.198Z" style="fill-rule:nonzero;"/>
            </g>
            <g id="Path_80" transform="matrix(1,0,0,1,-173.653,-234.692)">
                <path d="M239.755,243.609C239.755,243.857 239.662,243.95 239.414,243.95L234.058,243.95L234.058,245.75C234.058,246.55 234.458,247.081 236.009,247.081C237.588,247.081 237.96,246.555 237.96,245.75L237.96,245.533C237.96,245.285 238.053,245.161 238.332,245.161L239.323,245.161C239.339,245.159 239.355,245.158 239.37,245.158C239.55,245.158 239.698,245.306 239.698,245.486C239.698,245.501 239.697,245.517 239.695,245.533L239.695,245.874C239.695,247.484 238.735,248.568 235.949,248.568C233.163,248.568 232.203,247.484 232.203,245.874L232.203,241.199C232.203,239.589 233.194,238.505 236.011,238.505C238.798,238.505 239.726,239.589 239.726,241.199L239.726,243.614L239.755,243.609ZM234.089,242.556L238.021,242.556L238.021,241.318C238.021,240.544 237.521,239.987 236.07,239.987C234.584,239.987 234.119,240.513 234.119,241.318L234.119,242.556L234.089,242.556Z" style="fill-rule:nonzero;"/>
            </g>
            <g id="Path_81" transform="matrix(1,0,0,1,-196.573,-234.75)">
                <path d="M270.694,238.93L270.694,239.83C270.694,240.109 270.57,240.202 270.294,240.23C269.171,240.31 268.106,240.756 267.26,241.499L267.26,248.094C267.26,248.373 267.167,248.494 266.919,248.494L265.773,248.494C265.494,248.494 265.401,248.37 265.401,248.094L265.401,239.115C265.401,238.867 265.494,238.743 265.773,238.743L266.826,238.743C267.105,238.743 267.167,238.867 267.198,239.115L267.26,239.951C268.069,239.121 269.167,238.633 270.325,238.589C270.347,238.584 270.369,238.582 270.391,238.582C270.559,238.582 270.697,238.72 270.697,238.888C270.697,238.902 270.696,238.916 270.694,238.93Z" style="fill-rule:nonzero;"/>
            </g>
            <g id="Path_82" transform="matrix(1,0,0,1,-212.176,-234.692)">
                <path d="M295.524,243.609C295.524,243.857 295.431,243.95 295.183,243.95L289.858,243.95L289.858,245.75C289.858,246.55 290.258,247.081 291.809,247.081C293.388,247.081 293.76,246.555 293.76,245.75L293.76,245.533C293.76,245.285 293.853,245.161 294.132,245.161L295.123,245.161C295.139,245.159 295.155,245.158 295.17,245.158C295.35,245.158 295.498,245.306 295.498,245.486C295.498,245.501 295.497,245.517 295.495,245.533L295.495,245.874C295.495,247.484 294.535,248.568 291.749,248.568C288.963,248.568 288,247.479 288,245.869L288,241.194C288,239.584 288.991,238.5 291.808,238.5C294.595,238.5 295.523,239.584 295.523,241.194L295.524,243.609ZM289.858,242.556L293.79,242.556L293.79,241.318C293.79,240.544 293.29,239.987 291.839,239.987C290.353,239.987 289.888,240.513 289.888,241.318L289.888,242.556L289.858,242.556Z" style="fill-rule:nonzero;"/>
            </g>
            <g id="Path_83" transform="matrix(1,0,0,1,-235.028,-234.692)">
                <path d="M322.493,238.655C322.772,238.655 322.834,238.779 322.865,239.027L322.896,239.646C323.81,238.892 324.962,238.486 326.147,238.5C327.974,238.5 328.934,239.553 328.934,241.008L328.934,248.008C328.934,248.287 328.841,248.408 328.593,248.408L327.447,248.408C327.199,248.408 327.075,248.284 327.075,248.008L327.075,241.475C327.075,240.675 326.703,240.175 325.62,240.175C324.65,240.216 323.718,240.563 322.957,241.166L322.957,248.008C322.957,248.287 322.864,248.408 322.616,248.408L321.47,248.408C321.191,248.408 321.098,248.284 321.098,248.008L321.098,239.029C321.098,238.781 321.191,238.657 321.47,238.657L322.493,238.655Z" style="fill-rule:nonzero;"/>
            </g>
        </g>
    </g>
</svg>
