<?xml version="1.0" encoding="UTF-8" standalone="no"?><!DOCTYPE svg PUBLIC "-//W3C//DTD SVG 1.1//EN" "http://www.w3.org/Graphics/SVG/1.1/DTD/svg11.dtd"><svg width="100%" height="100%" viewBox="0 0 256 256" version="1.1" xmlns="http://www.w3.org/2000/svg" xmlns:xlink="http://www.w3.org/1999/xlink" xml:space="preserve" xmlns:serif="http://www.serif.com/" style="fill-rule:evenodd;clip-rule:evenodd;stroke-linejoin:round;stroke-miterlimit:1.41421;"><path d="M107.52,79.36l0,-45.568c0,-4.096 3.072,-7.168 7.168,-7.168l23.552,0c2.048,0 3.584,0.512 5.12,2.048c1.536,1.536 2.048,3.072 2.048,5.12l0,45.056c0,4.096 -3.072,7.168 -7.168,7.168l-23.552,0c-4.096,0.512 -7.168,-2.56 -7.168,-6.656l0,0Zm30.72,-0.512l0,-44.544l-23.04,0l0,44.544l23.04,0Zm-10.24,-78.848c-70.656,0 -128,57.344 -128,128c0,70.656 57.344,128 128,128c70.656,0 128,-57.344 128,-128c0,-70.656 -57.344,-128 -128,-128Zm22.528,219.648c0,2.048 -1.536,3.584 -3.584,3.584l-30.72,0c-1.024,0 -2.048,-0.512 -2.56,-1.024c-0.512,-0.512 -1.024,-1.536 -1.024,-2.56c0,-1.024 0.512,-2.048 1.024,-2.56c0.512,-0.512 1.536,-1.024 2.56,-1.024l11.776,0l0,-44.544l-11.264,0c-2.048,0 -3.584,-1.536 -3.584,-3.584c0,-2.048 1.536,-3.584 3.584,-3.584l18.944,0l0,52.224l7.68,0l0,-15.872c0,-2.048 1.536,-4.096 3.584,-4.096c2.048,0 4.096,1.536 4.096,3.584l0,19.456l-0.512,0Zm-24.064,-91.648c-33.28,0 -60.416,27.648 -60.416,60.928c0,32.768 26.112,59.392 58.88,60.416c-67.072,0 -121.344,-54.272 -121.344,-121.344c0,-67.072 54.272,-121.344 121.344,-121.344c0.512,0 1.024,0 2.048,0c33.28,-0.512 60.928,26.112 61.44,59.904c0.512,33.28 -26.112,60.928 -59.904,61.44c-0.512,0 -1.024,0 -2.048,0Z" style="fill:#fff;fill-rule:nonzero;"/></svg>