<?xml version="1.0" encoding="UTF-8" standalone="no"?><!DOCTYPE svg PUBLIC "-//W3C//DTD SVG 1.1//EN" "http://www.w3.org/Graphics/SVG/1.1/DTD/svg11.dtd"><svg width="100%" height="100%" viewBox="0 0 256 256" version="1.1" xmlns="http://www.w3.org/2000/svg" xmlns:xlink="http://www.w3.org/1999/xlink" xml:space="preserve" xmlns:serif="http://www.serif.com/" style="fill-rule:evenodd;clip-rule:evenodd;stroke-linejoin:round;stroke-miterlimit:1.41421;"><path id="path5" d="M97.369,227.435l0,-30.522c1.095,-0.419 2.164,-0.919 3.19,-1.525c14.552,-8.579 16.082,-32.953 3.414,-54.436c-12.667,-21.484 -34.732,-31.944 -49.284,-23.364c-14.552,8.58 -16.082,32.952 -3.416,54.436c2.044,3.465 4.334,6.639 6.796,9.496l0,22.675l-31.365,-17.949l0,-112.419l-10.994,-7.258c-10.014,18.247 -15.71,39.201 -15.71,61.484c0,69.236 54.937,125.603 123.619,127.878l0.012,-13.191l-26.262,-15.305Z" style="fill:#fff;fill-rule:nonzero;"/><path id="path7" d="M60.941,48.799l19.17,11.361c-0.378,3.15 -0.39,6.618 -0.378,7.81c0.176,16.892 23.053,29.733 47.991,29.475c24.939,-0.259 42.701,-15.367 42.575,-30.231c-0.142,-16.891 -16.386,-30.117 -41.315,-30.86c-8.44,-0.252 -16.575,1.433 -20.28,2.141l-13.981,-8.944l33.253,-18.973l98.029,56.982l11.242,-6.172c-10.815,-17.783 -26.133,-33.173 -45.444,-44.292c-60.002,-34.545 -136.263,-15.059 -172.503,43.328l11.151,7.041l30.49,-18.666Z" style="fill:#fff;fill-rule:nonzero;"/><path id="path9" d="M229.312,110.733l-20.846,10.896c-0.755,-0.126 -5.382,-4.457 -6.423,-5.038c-14.758,-8.222 -36.484,2.649 -48.622,24.436c-12.138,21.786 -11.103,46.695 3.654,54.919c14.758,8.221 36.732,-1.643 48.872,-23.429c1.958,-3.514 4.572,-11.674 5.794,-15.241l17.76,-10.267l-0.106,38.981l-97.766,57.096l0.048,12.864c20.806,-0.577 41.766,-6.251 60.995,-17.51c59.746,-34.985 80.627,-110.875 47.886,-171.292l-11.246,6.174l0,37.411Z" style="fill:#fff;fill-rule:nonzero;"/></svg>