<?xml version="1.0" encoding="UTF-8" standalone="no"?><!DOCTYPE svg PUBLIC "-//W3C//DTD SVG 1.1//EN" "http://www.w3.org/Graphics/SVG/1.1/DTD/svg11.dtd"><svg width="100%" height="100%" viewBox="0 0 256 256" version="1.1" xmlns="http://www.w3.org/2000/svg" xmlns:xlink="http://www.w3.org/1999/xlink" xml:space="preserve" xmlns:serif="http://www.serif.com/" style="fill-rule:evenodd;clip-rule:evenodd;stroke-linecap:round;stroke-linejoin:round;stroke-miterlimit:10;"><ellipse cx="128.375" cy="127.649" rx="59.706" ry="119.411" style="fill:none;stroke:#fff;stroke-width:14.05px;"/><path d="M217.583,207.725c18.965,-21.073 30.906,-49.17 30.906,-79.374c0,-30.906 -11.941,-59.003 -30.906,-80.076c-21.775,11.942 -53.384,19.668 -89.208,19.668c-35.121,0 -66.729,-7.726 -89.207,-19.668c-18.965,21.073 -30.906,49.17 -30.906,79.374c0,30.906 11.941,58.301 30.906,79.373c21.775,-11.941 53.384,-19.668 89.207,-19.668c35.824,0 67.433,7.727 89.208,20.371Z" style="fill:none;stroke:#fff;stroke-width:14.05px;"/><path d="M217.583,48.275c-21.775,-24.584 -53.384,-40.037 -89.208,-40.037c-35.121,0 -66.729,15.453 -89.207,40.037c21.775,11.942 53.384,19.668 89.207,19.668c35.824,0 67.433,-7.726 89.208,-19.668Z" style="fill:none;stroke:#fff;stroke-width:14.05px;"/><path d="M128.375,247.762c35.121,0 66.73,-15.453 89.208,-40.037c-21.775,-11.942 -53.384,-19.668 -89.208,-19.668c-35.121,0 -66.729,7.726 -89.207,19.668c22.478,24.584 54.086,40.037 89.207,40.037Z" style="fill:none;stroke:#fff;stroke-width:14.05px;"/><path d="M128.375,8.238l0,239.524l0,-239.524Z" style="fill:none;stroke:#fff;stroke-width:14.05px;"/><path d="M8.964,127.649l239.525,0l-239.525,0Z" style="fill:none;stroke:#fff;stroke-width:14.05px;"/></svg>